<svg width="24" height="24" viewBox="0 0 24 24" fill="none" xmlns="http://www.w3.org/2000/svg">
<path d="M11.36 13.575L11.18 6.99995H12.725L12.545 13.575H11.36ZM11.96 17.68C11.7 17.68 11.475 17.59 11.285 17.41C11.095 17.22 11 16.995 11 16.735C11 16.475 11.095 16.255 11.285 16.075C11.475 15.885 11.7 15.79 11.96 15.79C12.22 15.79 12.44 15.885 12.62 16.075C12.81 16.255 12.905 16.475 12.905 16.735C12.905 16.995 12.81 17.22 12.62 17.41C12.44 17.59 12.22 17.68 11.96 17.68Z" fill="#050505"/>
<path fill-rule="evenodd" clip-rule="evenodd" d="M12 3.5C7.30558 3.5 3.5 7.30558 3.5 12C3.5 16.6944 7.30558 20.5 12 20.5C16.6944 20.5 20.5 16.6944 20.5 12C20.5 7.30558 16.6944 3.5 12 3.5ZM2.5 12C2.5 6.75329 6.75329 2.5 12 2.5C17.2467 2.5 21.5 6.75329 21.5 12C21.5 17.2467 17.2467 21.5 12 21.5C6.75329 21.5 2.5 17.2467 2.5 12Z" fill="#050505"/>
</svg>
