<svg width="24" height="24" viewBox="0 0 24 24" fill="none" xmlns="http://www.w3.org/2000/svg">
<path fill-rule="evenodd" clip-rule="evenodd" d="M12 21C16.9706 21 21 16.9706 21 12C21 7.02944 16.9706 3 12 3C7.02944 3 3 7.02944 3 12C3 16.9706 7.02944 21 12 21ZM11.18 7L11.36 13.575H12.545L12.725 7H11.18ZM11.285 17.41C11.475 17.59 11.7 17.68 11.96 17.68C12.22 17.68 12.44 17.59 12.62 17.41C12.81 17.22 12.905 16.995 12.905 16.735C12.905 16.475 12.81 16.255 12.62 16.075C12.44 15.885 12.22 15.79 11.96 15.79C11.7 15.79 11.475 15.885 11.285 16.075C11.095 16.255 11 16.475 11 16.735C11 16.995 11.095 17.22 11.285 17.41Z" fill="#050505"/>
</svg>
