<svg width="24" height="24" viewBox="0 0 24 24" fill="none" xmlns="http://www.w3.org/2000/svg">
<path fill-rule="evenodd" clip-rule="evenodd" d="M12 4.5C7.85786 4.5 4.5 7.85786 4.5 12C4.5 16.1421 7.85786 19.5 12 19.5C16.1421 19.5 19.5 16.1421 19.5 12C19.5 7.85786 16.1421 4.5 12 4.5ZM3.5 12C3.5 7.30558 7.30558 3.5 12 3.5C16.6944 3.5 20.5 7.30558 20.5 12C20.5 16.6944 16.6944 20.5 12 20.5C7.30558 20.5 3.5 16.6944 3.5 12Z" fill="#050505"/>
<path fill-rule="evenodd" clip-rule="evenodd" d="M12 5.5C12.2761 5.5 12.5 5.72386 12.5 6V7.26429C13.6411 7.49593 14.5 8.50481 14.5 9.71429V9.85714C14.5 10.1333 14.2761 10.3571 14 10.3571C13.7239 10.3571 13.5 10.1333 13.5 9.85714V9.71429C13.5 9.06118 13.0826 8.50556 12.5 8.29964V11.6476L12.7778 11.7468C13.8106 12.1157 14.5 13.094 14.5 14.1907V14.2857C14.5 15.4952 13.6411 16.5041 12.5 16.7357V18C12.5 18.2761 12.2761 18.5 12 18.5C11.7239 18.5 11.5 18.2761 11.5 18V16.7357C10.3589 16.5041 9.5 15.4952 9.5 14.2857V14.1429C9.5 13.8667 9.72386 13.6429 10 13.6429C10.2761 13.6429 10.5 13.8667 10.5 14.1429V14.2857C10.5 14.9388 10.9174 15.4944 11.5 15.7004V12.3524L11.2222 12.2532C10.1894 11.8843 9.5 10.906 9.5 9.80931V9.71429C9.5 8.50481 10.3589 7.49593 11.5 7.26429V6C11.5 5.72386 11.7239 5.5 12 5.5ZM11.5 8.29964C10.9174 8.50556 10.5 9.06118 10.5 9.71429V9.80931C10.5 10.4624 10.8978 11.0473 11.5 11.2892V8.29964ZM12.5 12.7108V15.7004C13.0826 15.4944 13.5 14.9388 13.5 14.2857V14.1907C13.5 13.5376 13.1022 12.9527 12.5 12.7108Z" fill="#050505"/>
</svg>
