<svg width="24" height="24" viewBox="0 0 24 24" fill="none" xmlns="http://www.w3.org/2000/svg">
<path d="M11.3849 12.4199C11.2049 12.6799 10.9049 13.5 11.0099 14.2049H12.379C12.2399 13.2562 12.7599 12.7699 13.1099 12.5399L13.5749 12.2099C14.0349 11.8899 14.3949 11.5999 14.6549 11.3399C14.9149 11.0699 15.0999 10.7949 15.2099 10.5149C15.3199 10.2349 15.3749 9.9249 15.3749 9.5849C15.3749 9.0649 15.2249 8.6049 14.9249 8.2049C14.6349 7.8049 14.2399 7.4899 13.7399 7.2599C13.2399 7.0199 12.6699 6.8999 12.0299 6.8999C11.5199 6.8999 11.0399 6.9799 10.5899 7.1399C10.1399 7.2899 9.7249 7.5149 9.3449 7.8149C8.9749 8.1149 8.6599 8.4749 8.3999 8.8949L9.5999 9.5099C9.8799 9.0899 10.2249 8.7649 10.6349 8.5349C11.0449 8.3049 11.4849 8.1899 11.9549 8.1899C12.3249 8.1899 12.6549 8.2549 12.9449 8.3849C13.2349 8.5149 13.4649 8.6849 13.6349 8.8949C13.8149 9.1049 13.9049 9.3499 13.9049 9.6299C13.9049 9.9199 13.8249 10.1849 13.6649 10.4249C13.5049 10.6549 13.2299 10.9099 12.8399 11.1899L12.1349 11.6849C11.8249 11.9149 11.5749 12.1599 11.3849 12.4199Z" fill="#050505"/>
<path d="M10.9049 17.3999C11.0949 17.5799 11.3199 17.6699 11.5799 17.6699C11.8399 17.6699 12.0599 17.5799 12.2399 17.3999C12.4299 17.2099 12.5249 16.9849 12.5249 16.7249C12.5249 16.4649 12.4299 16.2449 12.2399 16.0649C12.0599 15.8749 11.8399 15.7799 11.5799 15.7799C11.3199 15.7799 11.0949 15.8749 10.9049 16.0649C10.7249 16.2449 10.6349 16.4649 10.6349 16.7249C10.6349 16.9849 10.7249 17.2099 10.9049 17.3999Z" fill="#050505"/>
<path fill-rule="evenodd" clip-rule="evenodd" d="M12 2.5C6.75329 2.5 2.5 6.75329 2.5 12C2.5 17.2467 6.75329 21.5 12 21.5C17.2467 21.5 21.5 17.2467 21.5 12C21.5 6.75329 17.2467 2.5 12 2.5ZM3.5 12C3.5 7.30558 7.30558 3.5 12 3.5C16.6944 3.5 20.5 7.30558 20.5 12C20.5 16.6944 16.6944 20.5 12 20.5C7.30558 20.5 3.5 16.6944 3.5 12Z" fill="#050505"/>
</svg>
