<svg width="24" height="24" viewBox="0 0 24 24" fill="none" xmlns="http://www.w3.org/2000/svg">
<path fill-rule="evenodd" clip-rule="evenodd" d="M18 3.5C18.2761 3.5 18.5 3.72386 18.5 4V5.5H20C20.2761 5.5 20.5 5.72386 20.5 6C20.5 6.27614 20.2761 6.5 20 6.5H18.5V8C18.5 8.27614 18.2761 8.5 18 8.5C17.7239 8.5 17.5 8.27614 17.5 8V6.5H16C15.7239 6.5 15.5 6.27614 15.5 6C15.5 5.72386 15.7239 5.5 16 5.5H17.5V4C17.5 3.72386 17.7239 3.5 18 3.5ZM4.99771 6.5C4.72306 6.5 4.5 6.72237 4.5 7V17.9179L8.18934 14.2286C8.77513 13.6428 9.72487 13.6428 10.3107 14.2286L10.6083 14.5261C10.8108 14.7287 11.1418 14.72 11.3335 14.5071L13.812 11.7531C14.4135 11.0848 15.4638 11.0921 16.0558 11.7688L17.5 13.4193V11C17.5 10.7239 17.7239 10.5 18 10.5C18.2761 10.5 18.5 10.7239 18.5 11V19C18.5 19.8284 17.8284 20.5 17 20.5H4.875C4.11561 20.5 3.5 19.8844 3.5 19.125V7C3.5 6.17306 4.1678 5.5 4.99771 5.5H13C13.2761 5.5 13.5 5.72386 13.5 6C13.5 6.27614 13.2761 6.5 13 6.5H4.99771ZM17.5 14.9379L15.3033 12.4273C15.1059 12.2017 14.7558 12.1993 14.5553 12.4221L12.0767 15.176C11.5018 15.8148 10.5088 15.8409 9.90114 15.2333L9.60355 14.9357C9.40829 14.7404 9.09171 14.7404 8.89645 14.9357L4.53947 19.2926C4.60101 19.4156 4.72815 19.5 4.875 19.5H17C17.2761 19.5 17.5 19.2761 17.5 19V14.9379ZM8 8.5C7.17157 8.5 6.5 9.17157 6.5 10C6.5 10.8284 7.17157 11.5 8 11.5C8.82843 11.5 9.5 10.8284 9.5 10C9.5 9.17157 8.82843 8.5 8 8.5ZM5.5 10C5.5 8.61929 6.61929 7.5 8 7.5C9.38071 7.5 10.5 8.61929 10.5 10C10.5 11.3807 9.38071 12.5 8 12.5C6.61929 12.5 5.5 11.3807 5.5 10Z" fill="#050505"/>
</svg>
