<svg height="41.94" viewBox="0 0 34.144 41.94" width="34.144" xmlns="http://www.w3.org/2000/svg"><path d="m27.1 8.689a9.184 9.184 0 0 0 2.22-6.689 9.31 9.31 0 0 0 -6.291 3.187 8.744 8.744 0 0 0 -2.1 6.479 7.737 7.737 0 0 0 6.171-2.977zm5.284 15.6a9.457 9.457 0 0 1 4.526-7.989 9.771 9.771 0 0 0 -7.674-4.194c-3.271-.335-6.291 1.908-8.031 1.908s-4.194-1.866-6.92-1.824a10.316 10.316 0 0 0 -8.685 5.31c-3.69 6.416-.944 15.957 2.747 21.136 1.677 2.537 3.774 5.41 6.542 5.305s3.669-1.719 6.878-1.719 4.194 1.719 6.92 1.657 4.655-2.6 6.416-5.137a23.065 23.065 0 0 0 2.897-5.981 9.247 9.247 0 0 1 -5.62-8.471z" fill="#fff" transform="translate(-3.856 -2)"/></svg>