<svg width="38" height="38" viewBox="0 0 38 38" fill="none" xmlns="http://www.w3.org/2000/svg">
<path d="M4.32186 0.967255C2.48019 0.967255 0.988525 2.45892 0.988525 4.30059V34.3006C0.988525 36.1423 2.48019 37.6339 4.32186 37.6339H34.3219C36.1635 37.6339 37.6552 36.1423 37.6552 34.3006V4.30059C37.6552 2.45892 36.1635 0.967255 34.3219 0.967255H4.32186ZM23.4885 12.6339H27.7496C28.2096 12.6339 28.5829 13.0073 28.5829 13.4673C28.5829 13.9273 28.2096 14.3006 27.7496 14.3006H23.4885C23.0285 14.3006 22.6552 13.9273 22.6552 13.4673C22.6552 13.0073 23.0285 12.6339 23.4885 12.6339ZM9.18839 13.2752H13.8303C16.5703 13.2752 18.2053 14.6157 18.2053 16.7973C18.2053 18.294 17.0983 19.5999 15.65 19.8149V19.9907C17.52 20.1274 18.8791 21.5366 18.8791 23.3566C18.8808 25.8316 17.0113 27.3995 13.9963 27.3995H9.18839C8.34173 27.3995 7.65519 26.713 7.65519 25.8663V14.8084C7.65519 13.9617 8.34173 13.2752 9.18839 13.2752ZM10.6109 15.5343V19.1281H12.831C14.4276 19.1297 15.2984 18.4727 15.2984 17.3377C15.2984 16.2127 14.4884 15.5343 13.0784 15.5343H10.6109ZM25.9267 16.3676C29.1083 16.3676 30.9853 18.3951 30.9853 21.8201V22.6893H23.5797V22.8357C23.618 24.4407 24.5588 25.4399 26.0471 25.4399C27.1721 25.4399 27.9443 25.04 28.2476 24.3266H30.9006C30.4706 26.3633 28.6091 27.6339 25.9657 27.6339C22.6774 27.6339 20.7411 25.5578 20.7411 22.0545C20.7411 18.5412 22.7167 16.3676 25.9267 16.3676ZM25.9397 18.5519C24.618 18.5519 23.6861 19.4696 23.5894 20.8696H28.189C28.129 19.4413 27.2697 18.5519 25.9397 18.5519ZM10.6109 21.1268V25.1404H13.2444C14.9477 25.1404 15.8681 24.4227 15.8681 23.1027C15.8681 21.8093 14.9177 21.1268 13.176 21.1268H10.6109Z" fill="#e9635d"/>
</svg>
