<svg width="24" height="24" viewBox="0 0 24 24" fill="none" xmlns="http://www.w3.org/2000/svg">
<path fill-rule="evenodd" clip-rule="evenodd" d="M6.5 9C6.5 5.96243 8.96243 3.5 12 3.5C15.0376 3.5 17.5 5.96243 17.5 9V15.5H19C19.2761 15.5 19.5 15.7239 19.5 16C19.5 16.2761 19.2761 16.5 19 16.5H5C4.72386 16.5 4.5 16.2761 4.5 16C4.5 15.7239 4.72386 15.5 5 15.5H6.5V9ZM7.5 15.5H16.5V9C16.5 6.51472 14.4853 4.5 12 4.5C9.51472 4.5 7.5 6.51472 7.5 9V15.5ZM9.5 18C9.5 17.7239 9.72386 17.5 10 17.5H14C14.2761 17.5 14.5 17.7239 14.5 18C14.5 18.3283 14.4353 18.6534 14.3097 18.9567C14.1841 19.26 13.9999 19.5356 13.7678 19.7678C13.5356 19.9999 13.26 20.1841 12.9567 20.3097C12.6534 20.4353 12.3283 20.5 12 20.5C11.6717 20.5 11.3466 20.4353 11.0433 20.3097C10.74 20.1841 10.4644 19.9999 10.2322 19.7678C10.0001 19.5356 9.81594 19.26 9.6903 18.9567C9.56466 18.6534 9.5 18.3283 9.5 18ZM10.5858 18.5C10.5946 18.5249 10.6041 18.5496 10.6142 18.574C10.6896 18.756 10.8001 18.9214 10.9393 19.0607C11.0786 19.1999 11.244 19.3104 11.426 19.3858C11.608 19.4612 11.803 19.5 12 19.5C12.197 19.5 12.392 19.4612 12.574 19.3858C12.756 19.3104 12.9214 19.1999 13.0607 19.0607C13.1999 18.9214 13.3104 18.756 13.3858 18.574C13.3959 18.5496 13.4054 18.5249 13.4142 18.5H10.5858Z" fill="#050505"/>
</svg>
