<svg width="24" height="24" viewBox="0 0 24 24" fill="none" xmlns="http://www.w3.org/2000/svg">
<path d="M6.5 9C6.5 5.96243 8.96243 3.5 12 3.5C15.0376 3.5 17.5 5.96243 17.5 9V15.5H19C19.2761 15.5 19.5 15.7239 19.5 16C19.5 16.2761 19.2761 16.5 19 16.5H5C4.72386 16.5 4.5 16.2761 4.5 16C4.5 15.7239 4.72386 15.5 5 15.5H6.5V9Z" fill="#050505"/>
<path d="M10.1522 18.7654C10.0517 18.5227 10 18.2626 10 18H14C14 18.2626 13.9483 18.5227 13.8478 18.7654C13.7472 19.008 13.5999 19.2285 13.4142 19.4142C13.2285 19.5999 13.008 19.7472 12.7654 19.8478C12.5227 19.9483 12.2626 20 12 20C11.7374 20 11.4773 19.9483 11.2346 19.8478C10.992 19.7472 10.7715 19.5999 10.5858 19.4142C10.4001 19.2285 10.2528 19.008 10.1522 18.7654Z" fill="#050505"/>
</svg>
