<svg width="24" height="24" viewBox="0 0 24 24" fill="none" xmlns="http://www.w3.org/2000/svg">
<path fill-rule="evenodd" clip-rule="evenodd" d="M17.5 9C17.5 8.6026 17.4579 8.21504 17.3778 7.84156C17.1047 7.94398 16.8089 8 16.5 8C16.4624 8 16.4251 7.99917 16.3879 7.99753C16.4613 8.3199 16.5 8.65543 16.5 9V15.5H7.5V9C7.5 6.51472 9.51472 4.5 12 4.5C12.7389 4.5 13.4362 4.67808 14.0513 4.99367C14.1205 4.65715 14.2574 4.34531 14.447 4.07299C13.71 3.70625 12.8791 3.5 12 3.5C8.96243 3.5 6.5 5.96243 6.5 9V15.5H5C4.72386 15.5 4.5 15.7239 4.5 16C4.5 16.2761 4.72386 16.5 5 16.5H7H17H19C19.2761 16.5 19.5 16.2761 19.5 16C19.5 15.7239 19.2761 15.5 19 15.5H17.5V9ZM10 17.5C9.72386 17.5 9.5 17.7239 9.5 18C9.5 18.3283 9.56466 18.6534 9.6903 18.9567C9.81594 19.26 10.0001 19.5356 10.2322 19.7678C10.4644 19.9999 10.74 20.1841 11.0433 20.3097C11.3466 20.4353 11.6717 20.5 12 20.5C12.3283 20.5 12.6534 20.4353 12.9567 20.3097C13.26 20.1841 13.5356 19.9999 13.7678 19.7678C13.9999 19.5356 14.1841 19.26 14.3097 18.9567C14.4353 18.6534 14.5 18.3283 14.5 18C14.5 17.7239 14.2761 17.5 14 17.5H10ZM10.6142 18.574C10.6041 18.5496 10.5946 18.5249 10.5858 18.5H13.4142C13.4054 18.5249 13.3959 18.5496 13.3858 18.574C13.3104 18.756 13.1999 18.9214 13.0607 19.0607C12.9214 19.1999 12.756 19.3104 12.574 19.3858C12.392 19.4612 12.197 19.5 12 19.5C11.803 19.5 11.608 19.4612 11.426 19.3858C11.244 19.3104 11.0786 19.1999 10.9393 19.0607C10.8001 18.9214 10.6896 18.756 10.6142 18.574Z" fill="#050505"/>
<path d="M18 5.5C18 6.32843 17.3284 7 16.5 7C15.6716 7 15 6.32843 15 5.5C15 4.67157 15.6716 4 16.5 4C17.3284 4 18 4.67157 18 5.5Z" fill="#B1B1B1"/>
</svg>
