<svg width="34" height="34" viewBox="0 0 34 34" fill="none" xmlns="http://www.w3.org/2000/svg">
<path fill-rule="evenodd" clip-rule="evenodd" d="M17 0.466675C10.9249 0.466675 6 5.39154 6 11.4667V22.4667H2.33333C1.32081 22.4667 0.5 23.2875 0.5 24.3C0.5 25.3125 1.32081 26.1333 2.33333 26.1333H31.6667C32.6792 26.1333 33.5 25.3125 33.5 24.3C33.5 23.2875 32.6792 22.4667 31.6667 22.4667H28V11.4667C28 5.39154 23.0751 0.466675 17 0.466675ZM9.66667 22.4667V11.4667C9.66667 7.41659 12.9499 4.13334 17 4.13334C21.0501 4.13334 24.3333 7.41659 24.3333 11.4667V22.4667H9.66667Z" fill="#C22A23"/>
<path d="M22.0813 30.0714C22.3577 29.4041 22.5 28.6889 22.5 27.9667H11.5C11.5 28.6889 11.6423 29.4041 11.9187 30.0714C12.1951 30.7387 12.6002 31.345 13.1109 31.8558C13.6216 32.3665 14.228 32.7716 14.8952 33.048C15.5625 33.3244 16.2777 33.4667 17 33.4667C17.7223 33.4667 18.4375 33.3244 19.1048 33.048C19.772 32.7716 20.3784 32.3665 20.8891 31.8558C21.3998 31.345 21.8049 30.7387 22.0813 30.0714Z" fill="#C22A23"/>
</svg>
