<svg width="24" height="24" viewBox="0 0 24 24" fill="none" xmlns="http://www.w3.org/2000/svg">
<path fill-rule="evenodd" clip-rule="evenodd" d="M7.5 4C7.5 3.72386 7.27614 3.5 7 3.5C6.72386 3.5 6.5 3.72386 6.5 4V6H5C4.44772 6 4 6.44772 4 7V19C4 19.5523 4.44772 20 5 20H19C19.5523 20 20 19.5523 20 19V7C20 6.44772 19.5523 6 19 6H17.5V4C17.5 3.72386 17.2761 3.5 17 3.5C16.7239 3.5 16.5 3.72386 16.5 4V6H7.5V4ZM12.2443 9.54033C12.4283 9.61905 12.5476 9.7999 12.5476 10V14.5H13C13.2761 14.5 13.5 14.7239 13.5 15C13.5 15.2762 13.2761 15.5 13 15.5H11.0952C10.8191 15.5 10.5952 15.2762 10.5952 15C10.5952 14.7239 10.8191 14.5 11.0952 14.5H11.5476V11.1685L11.3452 11.3617C11.1455 11.5524 10.829 11.545 10.6383 11.3453C10.4477 11.1455 10.455 10.829 10.6548 10.6383L11.7024 9.63833C11.8471 9.50016 12.0603 9.4616 12.2443 9.54033Z" fill="#050505"/>
</svg>
