<svg width="24" height="24" viewBox="0 0 24 24" fill="none" xmlns="http://www.w3.org/2000/svg">
<path fill-rule="evenodd" clip-rule="evenodd" d="M7 3.5C7.27614 3.5 7.5 3.72386 7.5 4V5.5H16.5V4C16.5 3.72386 16.7239 3.5 17 3.5C17.2761 3.5 17.5 3.72386 17.5 4V5.5H19C19.8284 5.5 20.5 6.17157 20.5 7V19C20.5 19.8284 19.8284 20.5 19 20.5H5C4.17157 20.5 3.5 19.8284 3.5 19V7C3.5 6.17157 4.17157 5.5 5 5.5H6.5V4C6.5 3.72386 6.72386 3.5 7 3.5ZM5 6.5C4.72386 6.5 4.5 6.72386 4.5 7V19C4.5 19.2761 4.72386 19.5 5 19.5H19C19.2761 19.5 19.5 19.2761 19.5 19V7C19.5 6.72386 19.2761 6.5 19 6.5H5Z" fill="#050505"/>
<path fill-rule="evenodd" clip-rule="evenodd" d="M12.2443 9.54032C12.4283 9.61904 12.5476 9.79988 12.5476 10V14.5H13C13.2761 14.5 13.5 14.7239 13.5 15C13.5 15.2761 13.2761 15.5 13 15.5H11.0952C10.8191 15.5 10.5952 15.2761 10.5952 15C10.5952 14.7239 10.8191 14.5 11.0952 14.5H11.5476V11.1685L11.3452 11.3617C11.1455 11.5523 10.829 11.545 10.6383 11.3452C10.4477 11.1455 10.455 10.829 10.6548 10.6383L11.7024 9.63832C11.8471 9.50015 12.0603 9.46159 12.2443 9.54032Z" fill="#050505"/>
</svg>
