<svg width="24" height="24" viewBox="0 0 24 24" fill="none" xmlns="http://www.w3.org/2000/svg">
<path fill-rule="evenodd" clip-rule="evenodd" d="M14.25 6C14.6642 6 15 6.33579 15 6.75C15 7.16421 15.3358 7.5 15.75 7.5H19C19.5523 7.5 20 7.94772 20 8.5V17C20 17.5523 19.5523 18 19 18H5C4.44772 18 4 17.5523 4 17V8.5C4 7.94772 4.44772 7.5 5 7.5H8.25C8.66421 7.5 9 7.16421 9 6.75C9 6.33579 9.33579 6 9.75 6H14.25ZM12 15.7006C13.6569 15.7006 15 14.3574 15 12.7006C15 11.0437 13.6569 9.70059 12 9.70059C10.3431 9.70059 9 11.0437 9 12.7006C9 14.3574 10.3431 15.7006 12 15.7006Z" fill="#050505"/>
</svg>
