<svg width="24" height="24" viewBox="0 0 24 24" fill="none" xmlns="http://www.w3.org/2000/svg">
<path fill-rule="evenodd" clip-rule="evenodd" d="M8.5 6.75C8.5 6.05964 9.05964 5.5 9.75 5.5H14.25C14.9404 5.5 15.5 6.05964 15.5 6.75C15.5 6.88807 15.6119 7 15.75 7H19C19.8284 7 20.5 7.67157 20.5 8.5V17C20.5 17.8284 19.8284 18.5 19 18.5H5C4.17157 18.5 3.5 17.8284 3.5 17V8.5C3.5 7.67157 4.17157 7 5 7H8.25C8.38807 7 8.5 6.88807 8.5 6.75ZM9.75 6.5C9.61193 6.5 9.5 6.61193 9.5 6.75C9.5 7.44036 8.94036 8 8.25 8H5C4.72386 8 4.5 8.22386 4.5 8.5V17C4.5 17.2761 4.72386 17.5 5 17.5H19C19.2761 17.5 19.5 17.2761 19.5 17V8.5C19.5 8.22386 19.2761 8 19 8H15.75C15.0596 8 14.5 7.44036 14.5 6.75C14.5 6.61193 14.3881 6.5 14.25 6.5H9.75Z" fill="#050505"/>
<path fill-rule="evenodd" clip-rule="evenodd" d="M12 9.79941C10.6193 9.79941 9.5 10.9187 9.5 12.2994C9.5 13.6801 10.6193 14.7994 12 14.7994C13.3807 14.7994 14.5 13.6801 14.5 12.2994C14.5 10.9187 13.3807 9.79941 12 9.79941ZM8.5 12.2994C8.5 10.3664 10.067 8.79941 12 8.79941C13.933 8.79941 15.5 10.3664 15.5 12.2994C15.5 14.2324 13.933 15.7994 12 15.7994C10.067 15.7994 8.5 14.2324 8.5 12.2994Z" fill="#050505"/>
</svg>
