<svg width="24" height="24" viewBox="0 0 24 24" fill="none" xmlns="http://www.w3.org/2000/svg">
<path fill-rule="evenodd" clip-rule="evenodd" d="M5 5C4.44772 5 4 5.44772 4 6V16C4 16.5523 4.44772 17 5 17H8V20L12 17H19C19.5523 17 20 16.5523 20 16V6C20 5.44772 19.5523 5 19 5H5ZM9 10C8.44772 10 8 10.4477 8 11C8 11.5523 8.44772 12 9 12C9.55228 12 10 11.5523 10 11C10 10.4477 9.55228 10 9 10ZM12 10C11.4477 10 11 10.4477 11 11C11 11.5523 11.4477 12 12 12C12.5523 12 13 11.5523 13 11C13 10.4477 12.5523 10 12 10ZM15 10C14.4477 10 14 10.4477 14 11C14 11.5523 14.4477 12 15 12C15.5523 12 16 11.5523 16 11C16 10.4477 15.5523 10 15 10Z" fill="#050505"/>
</svg>
