<svg width="24" height="24" viewBox="0 0 24 24" fill="none" xmlns="http://www.w3.org/2000/svg">
<path fill-rule="evenodd" clip-rule="evenodd" d="M3.5 6C3.5 5.17157 4.17157 4.5 5 4.5H19C19.8284 4.5 20.5 5.17157 20.5 6V16C20.5 16.8284 19.8284 17.5 19 17.5H12.1667L8.3 20.4C8.14849 20.5136 7.94579 20.5319 7.77639 20.4472C7.607 20.3625 7.5 20.1894 7.5 20V17.5H5C4.17157 17.5 3.5 16.8284 3.5 16V6ZM5 5.5C4.72386 5.5 4.5 5.72386 4.5 6V16C4.5 16.2761 4.72386 16.5 5 16.5H8C8.27614 16.5 8.5 16.7239 8.5 17V19L11.7 16.6C11.7865 16.5351 11.8918 16.5 12 16.5H19C19.2761 16.5 19.5 16.2761 19.5 16V6C19.5 5.72386 19.2761 5.5 19 5.5H5Z" fill="#050505"/>
<path d="M9.5 11C9.5 11.2761 9.27614 11.5 9 11.5C8.72386 11.5 8.5 11.2761 8.5 11C8.5 10.7239 8.72386 10.5 9 10.5C9.27614 10.5 9.5 10.7239 9.5 11Z" fill="#050505"/>
<path fill-rule="evenodd" clip-rule="evenodd" d="M8 11C8 10.4477 8.44772 10 9 10C9.55228 10 10 10.4477 10 11C10 11.5523 9.55228 12 9 12C8.44772 12 8 11.5523 8 11Z" fill="#050505"/>
<path d="M12.5 11C12.5 11.2761 12.2761 11.5 12 11.5C11.7239 11.5 11.5 11.2761 11.5 11C11.5 10.7239 11.7239 10.5 12 10.5C12.2761 10.5 12.5 10.7239 12.5 11Z" fill="#050505"/>
<path fill-rule="evenodd" clip-rule="evenodd" d="M11 11C11 10.4477 11.4477 10 12 10C12.5523 10 13 10.4477 13 11C13 11.5523 12.5523 12 12 12C11.4477 12 11 11.5523 11 11Z" fill="#050505"/>
<path d="M15.5 11C15.5 11.2761 15.2761 11.5 15 11.5C14.7239 11.5 14.5 11.2761 14.5 11C14.5 10.7239 14.7239 10.5 15 10.5C15.2761 10.5 15.5 10.7239 15.5 11Z" fill="#050505"/>
<path fill-rule="evenodd" clip-rule="evenodd" d="M14 11C14 10.4477 14.4477 10 15 10C15.5523 10 16 10.4477 16 11C16 11.5523 15.5523 12 15 12C14.4477 12 14 11.5523 14 11Z" fill="#050505"/>
</svg>
