<svg width="15" height="16" viewBox="0 0 15 16" fill="none" xmlns="http://www.w3.org/2000/svg">
<path d="M0.936698 2.68978C0.546171 2.29926 0.546165 1.66609 0.936686 1.27557C1.32721 0.885038 1.96037 0.885032 2.3509 1.27555L7.67481 6.59936L12.9987 1.27555C13.3892 0.885032 14.0224 0.885038 14.4129 1.27557C14.8034 1.66609 14.8034 2.29926 14.4129 2.68978L9.08903 8.01357L14.4129 13.3374C14.8034 13.7279 14.8034 14.361 14.4129 14.7516C14.0224 15.1421 13.3892 15.1421 12.9987 14.7516L7.67481 9.42777L2.3509 14.7516C1.96037 15.1421 1.32721 15.1421 0.936686 14.7516C0.546165 14.361 0.546171 13.7279 0.936699 13.3374L6.26058 8.01357L0.936698 2.68978Z" fill="#e9635d"/>
</svg>
