<svg width="24" height="24" viewBox="0 0 24 24" fill="none" xmlns="http://www.w3.org/2000/svg">
<path fill-rule="evenodd" clip-rule="evenodd" d="M9.27819 3.64646C9.42532 3.79359 9.46595 4.01646 9.38021 4.20605C8.93373 5.19331 8.68494 6.28955 8.68494 7.44525C8.68494 11.7916 12.2084 15.3151 16.5548 15.3151C17.7105 15.3151 18.8067 15.0663 19.794 14.6198C19.9836 14.5341 20.2064 14.5747 20.3536 14.7219C20.5007 14.869 20.5413 15.0919 20.4556 15.2814C19.0643 18.3578 15.9678 20.5 12.3698 20.5C7.47117 20.5 3.5 16.5289 3.5 11.6302C3.5 8.03223 5.6422 4.9357 8.71861 3.54444C8.90819 3.4587 9.13106 3.49933 9.27819 3.64646ZM8.00348 5.08159C5.89057 6.49324 4.5 8.8997 4.5 11.6302C4.5 15.9766 8.02345 19.5 12.3698 19.5C15.1003 19.5 17.5068 18.1095 18.9184 15.9966C18.1656 16.2042 17.3729 16.3151 16.5548 16.3151C11.6561 16.3151 7.68494 12.3439 7.68494 7.44525C7.68494 6.62717 7.79581 5.83446 8.00348 5.08159Z" fill="#050505"/>
</svg>
