<svg width="24" height="24" viewBox="0 0 24 24" fill="none" xmlns="http://www.w3.org/2000/svg">
<path fill-rule="evenodd" clip-rule="evenodd" d="M10 3.5C9.17157 3.5 8.5 4.17157 8.5 5V5.5H4C3.72386 5.5 3.5 5.72386 3.5 6C3.5 6.27614 3.72386 6.5 4 6.5H5.53444L6.43493 19.1069C6.491 19.8918 7.14416 20.5 7.93112 20.5H16.0689C16.8558 20.5 17.509 19.8918 17.5651 19.1069L18.4656 6.5H20C20.2761 6.5 20.5 6.27614 20.5 6C20.5 5.72386 20.2761 5.5 20 5.5H15.5V5C15.5 4.17157 14.8284 3.5 14 3.5H10ZM14.5 5.5V5C14.5 4.72386 14.2761 4.5 14 4.5H10C9.72386 4.5 9.5 4.72386 9.5 5V5.5H14.5ZM10 8.5C10.2761 8.5 10.5 8.72386 10.5 9V17C10.5 17.2761 10.2761 17.5 10 17.5C9.72386 17.5 9.5 17.2761 9.5 17V9C9.5 8.72386 9.72386 8.5 10 8.5ZM14 8.5C14.2761 8.5 14.5 8.72386 14.5 9V17C14.5 17.2761 14.2761 17.5 14 17.5C13.7239 17.5 13.5 17.2761 13.5 17V9C13.5 8.72386 13.7239 8.5 14 8.5Z" fill="#050505"/>
</svg>
