<svg width="25" height="25" viewBox="0 0 25 25" fill="none" xmlns="http://www.w3.org/2000/svg">
<path d="M10.3672 9.72595C10.9195 9.72595 11.3672 10.1737 11.3672 10.726V16.726C11.3672 17.2782 10.9195 17.726 10.3672 17.726C9.8149 17.726 9.36719 17.2782 9.36719 16.726V10.726C9.36719 10.1737 9.8149 9.72595 10.3672 9.72595Z" fill="black"/>
<path d="M15.3672 10.726C15.3672 10.1737 14.9195 9.72595 14.3672 9.72595C13.8149 9.72595 13.3672 10.1737 13.3672 10.726V16.726C13.3672 17.2782 13.8149 17.726 14.3672 17.726C14.9195 17.726 15.3672 17.2782 15.3672 16.726V10.726Z" fill="black"/>
<path fill-rule="evenodd" clip-rule="evenodd" d="M7.36719 4.72595C7.36719 4.17367 7.8149 3.72595 8.36719 3.72595H16.3672C16.9195 3.72595 17.3672 4.17367 17.3672 4.72595V6.72595H20.3672C20.9195 6.72595 21.3672 7.17367 21.3672 7.72595C21.3672 8.27824 20.9195 8.72595 20.3672 8.72595H20.2037L18.0181 20.9026C17.9326 21.3791 17.518 21.726 17.0339 21.726H7.60719C7.12042 21.726 6.70437 21.3755 6.62171 20.8958L4.52476 8.72595H4.36719C3.8149 8.72595 3.36719 8.27824 3.36719 7.72595C3.36719 7.17367 3.8149 6.72595 4.36719 6.72595H7.36719V4.72595ZM9.36719 6.72595H15.3672V5.72595H9.36719V6.72595ZM6.55423 8.72595L8.44962 19.726H16.1974L18.1717 8.72595H6.55423Z" fill="black"/>
</svg>
