<svg width="42" height="43" viewBox="0 0 42 43" fill="none" xmlns="http://www.w3.org/2000/svg">
<path d="M31.8322 23.3839C30.3718 23.3839 28.9426 23.512 27.5478 23.7464C29.4582 28.6714 30.9062 33.8214 31.8468 39.1475C36.8124 36.161 40.4426 31.1808 41.5926 25.3079C38.5801 24.0714 35.2853 23.3839 31.8322 23.3839ZM23.2624 21.5558C22.7051 20.2912 22.1134 19.0443 21.4926 17.8152C17.1603 19.3954 12.4864 20.2589 7.61344 20.2589C5.15303 20.2589 2.74782 20.0266 0.407194 19.6058C0.362402 20.1662 0.321777 20.7287 0.321777 21.3006C0.321777 26.9308 2.57594 32.0381 6.21865 35.7912C9.75615 29.0433 15.8759 23.8537 23.2624 21.5558ZM24.3895 16.6183C25.0759 17.9881 25.7322 19.3756 26.3437 20.7881C28.1218 20.4443 29.9551 20.2589 31.8322 20.2589C35.3905 20.2589 38.7978 20.9089 41.9489 22.0902C41.9582 21.8256 41.9884 21.5673 41.9884 21.3006C41.9884 16.1131 40.0697 11.3725 36.9218 7.72246C33.3676 11.4298 29.1218 14.4631 24.3895 16.6183ZM8.63949 37.9152C12.1291 40.5506 16.4551 42.1339 21.1551 42.1339C23.9062 42.1339 26.5291 41.585 28.9353 40.612C28.0134 35.01 26.4999 29.6079 24.4707 24.461C17.5103 26.5381 11.7739 31.4798 8.63949 37.9152ZM34.7124 5.51413C31.0645 2.37767 26.3322 0.467255 21.1551 0.467255C18.8832 0.467255 16.7009 0.84538 14.652 1.52038C17.7666 5.361 20.5499 9.47975 22.9468 13.8423C27.3957 11.8402 31.3843 8.99746 34.7124 5.51413ZM0.896777 16.5193C3.07803 16.9162 5.31969 17.1339 7.61344 17.1339C11.9603 17.1339 16.1332 16.3818 20.0187 15.0162C17.6062 10.6756 14.8093 6.57767 11.6582 2.7808C6.31032 5.53392 2.3124 10.5277 0.896777 16.5193Z" fill="#e9635d"/>
</svg>
