<svg width="36" height="36" viewBox="0 0 36 36" fill="none" xmlns="http://www.w3.org/2000/svg">
<path fill-rule="evenodd" clip-rule="evenodd" d="M5.03647 30.9635L9.41182 29.7847L23.4091 15.7874L20.2126 12.5909L6.21532 26.5882L5.03647 30.9635ZM2.56545 24.7593C2.64416 24.5631 2.76182 24.3848 2.9113 24.2353L18.7984 8.34824C18.9078 8.23881 19.0268 8.14472 19.1526 8.06596C19.9248 7.58253 20.9552 7.67662 21.6268 8.34824L27.6518 14.3732C27.6618 14.3832 27.6716 14.3932 27.6814 14.4034C28.317 15.0659 28.4078 16.0583 27.9538 16.8152C27.8712 16.9529 27.7705 17.0829 27.6518 17.2016L11.7647 33.0887C11.6152 33.2382 11.4369 33.3558 11.2407 33.4346L2.15191 35.8834C0.873422 36.3963 -0.396289 35.1266 0.116637 33.8481L2.56545 24.7593ZM25.3131 1.83359C27.7578 -0.611197 31.7216 -0.611195 34.1664 1.83359C36.6112 4.27838 36.6112 8.24216 34.1664 10.6869L32.0434 12.8414C31.9184 12.9683 31.7806 13.0749 31.6342 13.1613C30.8707 13.6117 29.8711 13.512 29.2114 12.8586L23.1286 6.83373C22.4538 6.16534 22.3554 5.13657 22.833 4.3631C22.9151 4.23015 23.0142 4.10475 23.1304 3.99002L25.3131 1.83359ZM28.1243 4.67908L27.3799 5.41457L30.6016 8.60564L31.3172 7.87942L31.338 7.85851C32.2207 6.97583 32.2207 5.54471 31.338 4.66202C30.4553 3.77933 29.0242 3.77933 28.1415 4.66202L28.1243 4.67908Z" fill="#000000"/>
</svg>
