<svg width="37" height="36" viewBox="0 0 37 36" fill="none" xmlns="http://www.w3.org/2000/svg">
<path fill-rule="evenodd" clip-rule="evenodd" d="M5.79233 30.9635L10.1677 29.7847L24.165 15.7874L20.9685 12.5909L6.97118 26.5882L5.79233 30.9635ZM3.32131 24.7593C3.40002 24.5631 3.51768 24.3848 3.66716 24.2353L19.5543 8.34824C19.6637 8.23881 19.7826 8.14472 19.9085 8.06596C20.6806 7.58253 21.7111 7.67662 22.3827 8.34824L28.4076 14.3732C28.4176 14.3832 28.4275 14.3932 28.4372 14.4034C29.0728 15.0659 29.1637 16.0583 28.7097 16.8152C28.627 16.9529 28.5264 17.0829 28.4076 17.2016L12.5205 33.0887C12.371 33.2382 12.1928 33.3558 11.9966 33.4346L2.90777 35.8834C1.62928 36.3963 0.35957 35.1266 0.872497 33.8481L3.32131 24.7593ZM26.0689 1.83359C28.5137 -0.611197 32.4775 -0.611195 34.9223 1.83359C37.3671 4.27838 37.3671 8.24216 34.9223 10.6869L32.7993 12.8414C32.6743 12.9683 32.5365 13.0749 32.39 13.1613C31.6266 13.6117 30.6269 13.512 29.9673 12.8586L23.8844 6.83373C23.2096 6.16534 23.1112 5.13657 23.5889 4.3631C23.671 4.23015 23.7701 4.10475 23.8862 3.99002L26.0689 1.83359ZM28.8802 4.67908L28.1357 5.41457L31.3575 8.60564L32.0731 7.87942L32.0938 7.85851C32.9765 6.97583 32.9765 5.54471 32.0938 4.66202C31.2112 3.77933 29.78 3.77933 28.8973 4.66202L28.8802 4.67908Z" fill="#F7F7F7"/>
</svg>
