<svg width="24" height="24" viewBox="0 0 24 24" fill="none" xmlns="http://www.w3.org/2000/svg">
<path fill-rule="evenodd" clip-rule="evenodd" d="M3.5 5C3.5 4.17157 4.17157 3.5 5 3.5H13C13.2761 3.5 13.5 3.72386 13.5 4C13.5 4.27614 13.2761 4.5 13 4.5H5C4.72386 4.5 4.5 4.72386 4.5 5V19C4.5 19.2761 4.72386 19.5 5 19.5H13C13.2761 19.5 13.5 19.7239 13.5 20C13.5 20.2761 13.2761 20.5 13 20.5H5C4.17157 20.5 3.5 19.8284 3.5 19V5ZM16.6464 8.64645C16.8417 8.45118 17.1583 8.45118 17.3536 8.64645L20.3536 11.6464C20.5488 11.8417 20.5488 12.1583 20.3536 12.3536L17.3536 15.3536C17.1583 15.5488 16.8417 15.5488 16.6464 15.3536C16.4512 15.1583 16.4512 14.8417 16.6464 14.6464L18.7929 12.5H12C11.7239 12.5 11.5 12.2761 11.5 12C11.5 11.7239 11.7239 11.5 12 11.5H18.7929L16.6464 9.35355C16.4512 9.15829 16.4512 8.84171 16.6464 8.64645Z" fill="#050505"/>
</svg>
