<svg width="24" height="24" viewBox="0 0 24 24" fill="none" xmlns="http://www.w3.org/2000/svg">
<path fill-rule="evenodd" clip-rule="evenodd" d="M7.60861 9.13607C6.33922 10.0488 5.35469 11.1241 4.82574 11.7594C4.70604 11.9032 4.70604 12.0968 4.82574 12.2406C5.35469 12.8759 6.33922 13.9512 7.60861 14.8639C8.8827 15.7801 10.3983 16.5 12 16.5C13.6017 16.5 15.1174 15.7801 16.3914 14.8639C17.6608 13.9512 18.6454 12.8759 19.1743 12.2406C19.294 12.0968 19.294 11.9032 19.1743 11.7594C18.6454 11.1241 17.6608 10.0488 16.3914 9.13607C15.1174 8.21991 13.6017 7.5 12 7.5C10.3983 7.5 8.88269 8.21991 7.60861 9.13607ZM7.0248 8.32418C8.38374 7.34701 10.1038 6.5 12 6.5C13.8962 6.5 15.6163 7.34701 16.9752 8.32418C18.3389 9.30472 19.3847 10.4492 19.9428 11.1196C20.3712 11.6341 20.3712 12.3659 19.9428 12.8804C19.3847 13.5508 18.3389 14.6953 16.9752 15.6758C15.6163 16.653 13.8962 17.5 12 17.5C10.1038 17.5 8.38374 16.653 7.0248 15.6758C5.66117 14.6953 4.61537 13.5508 4.05724 12.8804C3.62887 12.3659 3.62887 11.6341 4.05724 11.1196C4.61537 10.4492 5.66117 9.30472 7.0248 8.32418ZM12 10.5C11.1716 10.5 10.5 11.1716 10.5 12C10.5 12.8284 11.1716 13.5 12 13.5C12.8285 13.5 13.5 12.8284 13.5 12C13.5 11.1716 12.8285 10.5 12 10.5ZM9.50003 12C9.50003 10.6193 10.6193 9.5 12 9.5C13.3807 9.5 14.5 10.6193 14.5 12C14.5 13.3807 13.3807 14.5 12 14.5C10.6193 14.5 9.50003 13.3807 9.50003 12Z" fill="#050505"/>
</svg>
