<svg width="24" height="24" viewBox="0 0 24 24" fill="none" xmlns="http://www.w3.org/2000/svg">
<path fill-rule="evenodd" clip-rule="evenodd" d="M4.5 7C4.5 6.72386 4.72386 6.5 5 6.5H19C19.2761 6.5 19.5 6.72386 19.5 7C19.5 7.27614 19.2761 7.5 19 7.5H5C4.72386 7.5 4.5 7.27614 4.5 7ZM6.5 12.5C6.5 12.2239 6.72386 12 7 12H17.1C17.3761 12 17.6 12.2239 17.6 12.5C17.6 12.7761 17.3761 13 17.1 13H7C6.72386 13 6.5 12.7761 6.5 12.5ZM9.5 17.5C9.5 17.2239 9.72386 17 10 17H14C14.2761 17 14.5 17.2239 14.5 17.5C14.5 17.7761 14.2761 18 14 18H10C9.72386 18 9.5 17.7761 9.5 17.5Z" fill="#050505"/>
</svg>
