<svg width="243" height="92" viewBox="0 0 243 92" fill="none" xmlns="http://www.w3.org/2000/svg">
<g clip-path="url(#clip0_1559_3900)">
<path d="M0 64.5V24.0384C0 21.5328 1.79211 19.5 4.00098 19.5H19.9466C27.7085 19.5 34 26.6366 34 35.4411C34 44.2456 27.7085 51.3822 19.9466 51.3822H11.3511L11.2061 64.5H0Z" fill="#E79B7F"/>
<path d="M0 64.3241V24.0384C0 21.5328 1.79211 19.5 4.00098 19.5H19.9466C27.7085 19.5 34 26.6366 34 35.4411C34 44.2456 27.7085 51.3822 19.9466 51.3822H10.9577L0 64.3241Z" fill="#DC693F"/>
</g>
<path d="M44.208 53.648C44.208 52.9907 44.3627 52.4493 44.672 52.024C44.9813 51.56 45.4453 51.212 46.064 50.98C46.6827 50.748 47.514 50.632 48.558 50.632C49.9113 50.632 51.1873 50.8253 52.386 51.212C53.6233 51.56 54.706 52.082 55.634 52.778V48.892C55.17 48.3893 54.474 47.906 53.546 47.442C52.618 46.978 51.4967 46.5913 50.182 46.282C48.906 45.9727 47.456 45.818 45.832 45.818C42.5067 45.818 39.9353 46.572 38.118 48.08C36.3007 49.5493 35.392 51.56 35.392 54.112C35.392 55.9293 35.8173 57.476 36.668 58.752C37.5573 60.028 38.7173 60.9947 40.148 61.652C41.6173 62.2707 43.2027 62.58 44.904 62.58C46.6053 62.58 48.1907 62.29 49.66 61.71C51.1293 61.0913 52.328 60.202 53.256 59.042C54.184 57.8433 54.648 56.3933 54.648 54.692L53.72 51.212C53.72 52.4493 53.4493 53.4933 52.908 54.344C52.3667 55.1947 51.6707 55.8327 50.82 56.258C49.9693 56.6833 49.0413 56.896 48.036 56.896C47.34 56.896 46.702 56.78 46.122 56.548C45.542 56.2773 45.078 55.91 44.73 55.446C44.382 54.9433 44.208 54.344 44.208 53.648ZM40.322 43.498C40.7087 43.266 41.3273 42.976 42.178 42.628C43.0287 42.2413 44.0147 41.9127 45.136 41.642C46.296 41.3713 47.4753 41.236 48.674 41.236C49.486 41.236 50.2013 41.3133 50.82 41.468C51.4773 41.6227 52.0187 41.874 52.444 42.222C52.8693 42.57 53.1787 42.9953 53.372 43.498C53.604 43.962 53.72 44.5227 53.72 45.18V62H62.13V43.208C62.13 41.352 61.5887 39.786 60.506 38.51C59.4233 37.234 57.954 36.2673 56.098 35.61C54.242 34.914 52.1347 34.566 49.776 34.566C47.2627 34.566 44.9427 34.8947 42.816 35.552C40.6893 36.2093 38.872 36.9053 37.364 37.64L40.322 43.498ZM75.6476 74.76V35.32H66.8896V74.76H75.6476ZM97.4556 48.66C97.4556 45.528 96.837 42.918 95.5996 40.83C94.401 38.7033 92.835 37.0987 90.9016 36.016C89.007 34.9333 86.9576 34.392 84.7536 34.392C82.4336 34.392 80.423 34.9913 78.7216 36.19C77.059 37.35 75.783 38.9933 74.8936 41.12C74.0043 43.2467 73.5596 45.76 73.5596 48.66C73.5596 51.5213 74.0043 54.0347 74.8936 56.2C75.783 58.3267 77.059 59.9893 78.7216 61.188C80.423 62.348 82.4336 62.928 84.7536 62.928C86.9576 62.928 89.007 62.3867 90.9016 61.304C92.835 60.2213 94.401 58.6167 95.5996 56.49C96.837 54.3633 97.4556 51.7533 97.4556 48.66ZM88.2336 48.66C88.2336 50.052 87.9436 51.2313 87.3636 52.198C86.7836 53.1647 86.0103 53.8993 85.0436 54.402C84.077 54.9047 83.0136 55.156 81.8536 55.156C80.8483 55.156 79.8623 54.924 78.8956 54.46C77.9676 53.9573 77.1943 53.2227 76.5756 52.256C75.957 51.2893 75.6476 50.0907 75.6476 48.66C75.6476 47.2293 75.957 46.0307 76.5756 45.064C77.1943 44.0973 77.9676 43.382 78.8956 42.918C79.8623 42.4153 80.8483 42.164 81.8536 42.164C83.0136 42.164 84.077 42.4153 85.0436 42.918C86.0103 43.4207 86.7836 44.1553 87.3636 45.122C87.9436 46.0887 88.2336 47.268 88.2336 48.66ZM107.791 53.648C107.791 52.9907 107.945 52.4493 108.255 52.024C108.564 51.56 109.028 51.212 109.647 50.98C110.265 50.748 111.097 50.632 112.141 50.632C113.494 50.632 114.77 50.8253 115.969 51.212C117.206 51.56 118.289 52.082 119.217 52.778V48.892C118.753 48.3893 118.057 47.906 117.129 47.442C116.201 46.978 115.079 46.5913 113.765 46.282C112.489 45.9727 111.039 45.818 109.415 45.818C106.089 45.818 103.518 46.572 101.701 48.08C99.8832 49.5493 98.9745 51.56 98.9745 54.112C98.9745 55.9293 99.3998 57.476 100.251 58.752C101.14 60.028 102.3 60.9947 103.731 61.652C105.2 62.2707 106.785 62.58 108.487 62.58C110.188 62.58 111.773 62.29 113.243 61.71C114.712 61.0913 115.911 60.202 116.839 59.042C117.767 57.8433 118.231 56.3933 118.231 54.692L117.303 51.212C117.303 52.4493 117.032 53.4933 116.491 54.344C115.949 55.1947 115.253 55.8327 114.403 56.258C113.552 56.6833 112.624 56.896 111.619 56.896C110.923 56.896 110.285 56.78 109.705 56.548C109.125 56.2773 108.661 55.91 108.313 55.446C107.965 54.9433 107.791 54.344 107.791 53.648ZM103.905 43.498C104.291 43.266 104.91 42.976 105.761 42.628C106.611 42.2413 107.597 41.9127 108.719 41.642C109.879 41.3713 111.058 41.236 112.257 41.236C113.069 41.236 113.784 41.3133 114.403 41.468C115.06 41.6227 115.601 41.874 116.027 42.222C116.452 42.57 116.761 42.9953 116.955 43.498C117.187 43.962 117.303 44.5227 117.303 45.18V62H125.713V43.208C125.713 41.352 125.171 39.786 124.089 38.51C123.006 37.234 121.537 36.2673 119.681 35.61C117.825 34.914 115.717 34.566 113.359 34.566C110.845 34.566 108.525 34.8947 106.399 35.552C104.272 36.2093 102.455 36.9053 100.947 37.64L103.905 43.498ZM157.565 35.32H148.575L140.049 56.664L144.573 56.722L135.931 35.32H126.303L137.845 59.854L131.349 74.76H140.165L157.565 35.32Z" fill="#DC693F"/>
<path d="M165.539 53.648C165.539 52.9907 165.694 52.4493 166.003 52.024C166.312 51.56 166.776 51.212 167.395 50.98C168.014 50.748 168.845 50.632 169.889 50.632C171.242 50.632 172.518 50.8253 173.717 51.212C174.954 51.56 176.037 52.082 176.965 52.778V48.892C176.501 48.3893 175.805 47.906 174.877 47.442C173.949 46.978 172.828 46.5913 171.513 46.282C170.237 45.9727 168.787 45.818 167.163 45.818C163.838 45.818 161.266 46.572 159.449 48.08C157.632 49.5493 156.723 51.56 156.723 54.112C156.723 55.9293 157.148 57.476 157.999 58.752C158.888 60.028 160.048 60.9947 161.479 61.652C162.948 62.2707 164.534 62.58 166.235 62.58C167.936 62.58 169.522 62.29 170.991 61.71C172.46 61.0913 173.659 60.202 174.587 59.042C175.515 57.8433 175.979 56.3933 175.979 54.692L175.051 51.212C175.051 52.4493 174.78 53.4933 174.239 54.344C173.698 55.1947 173.002 55.8327 172.151 56.258C171.3 56.6833 170.372 56.896 169.367 56.896C168.671 56.896 168.033 56.78 167.453 56.548C166.873 56.2773 166.409 55.91 166.061 55.446C165.713 54.9433 165.539 54.344 165.539 53.648ZM161.653 43.498C162.04 43.266 162.658 42.976 163.509 42.628C164.36 42.2413 165.346 41.9127 166.467 41.642C167.627 41.3713 168.806 41.236 170.005 41.236C170.817 41.236 171.532 41.3133 172.151 41.468C172.808 41.6227 173.35 41.874 173.775 42.222C174.2 42.57 174.51 42.9953 174.703 43.498C174.935 43.962 175.051 44.5227 175.051 45.18V62H183.461V43.208C183.461 41.352 182.92 39.786 181.837 38.51C180.754 37.234 179.285 36.2673 177.429 35.61C175.573 34.914 173.466 34.566 171.107 34.566C168.594 34.566 166.274 34.8947 164.147 35.552C162.02 36.2093 160.203 36.9053 158.695 37.64L161.653 43.498ZM189.729 52.314L186.075 58.114C187.273 59.042 188.569 59.8927 189.961 60.666C191.353 61.4007 192.861 61.9807 194.485 62.406C196.147 62.87 197.945 63.102 199.879 63.102C203.049 63.102 205.505 62.3867 207.245 60.956C209.023 59.4867 209.913 57.3213 209.913 54.46C209.913 52.7973 209.545 51.4633 208.811 50.458C208.115 49.4527 207.167 48.6213 205.969 47.964C204.809 47.3067 203.533 46.7267 202.141 46.224C200.826 45.7213 199.705 45.3153 198.777 45.006C197.887 44.658 197.191 44.2907 196.689 43.904C196.225 43.5173 195.993 43.034 195.993 42.454C195.993 41.9513 196.186 41.5453 196.573 41.236C196.998 40.9267 197.617 40.772 198.429 40.772C199.627 40.772 200.942 41.12 202.373 41.816C203.803 42.4733 205.079 43.324 206.201 44.368L209.333 38.684C208.289 37.9107 207.167 37.234 205.969 36.654C204.809 36.074 203.552 35.61 202.199 35.262C200.884 34.914 199.453 34.74 197.907 34.74C195.973 34.74 194.253 35.03 192.745 35.61C191.275 36.19 190.096 37.0407 189.207 38.162C188.356 39.2833 187.931 40.656 187.931 42.28C187.931 43.9813 188.298 45.3733 189.033 46.456C189.767 47.5387 190.695 48.4087 191.817 49.066C192.977 49.6847 194.195 50.226 195.471 50.69C196.901 51.1153 198.023 51.5213 198.835 51.908C199.685 52.2947 200.285 52.7007 200.633 53.126C200.981 53.5127 201.155 53.996 201.155 54.576C201.155 55.1947 200.942 55.6973 200.517 56.084C200.091 56.4707 199.434 56.664 198.545 56.664C197.926 56.664 197.191 56.548 196.341 56.316C195.49 56.0453 194.504 55.6007 193.383 54.982C192.3 54.3247 191.082 53.4353 189.729 52.314ZM212.932 16.76V62H221.342V16.76H212.932ZM231.028 35.32L219.602 46.34L232.362 62H242.686L230.1 46.34L241.526 35.32H231.028Z" fill="#E18440"/>
<defs>
<clipPath id="clip0_1559_3900">
<rect width="34" height="45" fill="white" transform="translate(0 19.5)"/>
</clipPath>
</defs>
</svg>
