<svg width="249" height="92" viewBox="0 0 249 92" fill="none" xmlns="http://www.w3.org/2000/svg">
<g clip-path="url(#clip0_2779_4878)">
<path d="M5.5 64.5V24.0384C5.5 21.5328 7.29211 19.5 9.50098 19.5H25.4466C33.2085 19.5 39.5 26.6366 39.5 35.4411C39.5 44.2456 33.2085 51.3822 25.4466 51.3822H16.8511L16.7061 64.5H5.5Z" fill="#E18440"/>
<path d="M5.5 64.3241V24.0384C5.5 21.5328 7.29211 19.5 9.50098 19.5H25.4466C33.2085 19.5 39.5 26.6366 39.5 35.4411C39.5 44.2456 33.2085 51.3822 25.4466 51.3822H16.4577L5.5 64.3241Z" fill="#DC693F"/>
</g>
<path d="M49.208 53.648C49.208 52.9907 49.3627 52.4493 49.672 52.024C49.9813 51.56 50.4453 51.212 51.064 50.98C51.6827 50.748 52.514 50.632 53.558 50.632C54.9113 50.632 56.1873 50.8253 57.386 51.212C58.6233 51.56 59.706 52.082 60.634 52.778V48.892C60.17 48.3893 59.474 47.906 58.546 47.442C57.618 46.978 56.4967 46.5913 55.182 46.282C53.906 45.9727 52.456 45.818 50.832 45.818C47.5067 45.818 44.9353 46.572 43.118 48.08C41.3007 49.5493 40.392 51.56 40.392 54.112C40.392 55.9293 40.8173 57.476 41.668 58.752C42.5573 60.028 43.7173 60.9947 45.148 61.652C46.6173 62.2707 48.2027 62.58 49.904 62.58C51.6053 62.58 53.1907 62.29 54.66 61.71C56.1293 61.0913 57.328 60.202 58.256 59.042C59.184 57.8433 59.648 56.3933 59.648 54.692L58.72 51.212C58.72 52.4493 58.4493 53.4933 57.908 54.344C57.3667 55.1947 56.6707 55.8327 55.82 56.258C54.9693 56.6833 54.0413 56.896 53.036 56.896C52.34 56.896 51.702 56.78 51.122 56.548C50.542 56.2773 50.078 55.91 49.73 55.446C49.382 54.9433 49.208 54.344 49.208 53.648ZM45.322 43.498C45.7087 43.266 46.3273 42.976 47.178 42.628C48.0287 42.2413 49.0147 41.9127 50.136 41.642C51.296 41.3713 52.4753 41.236 53.674 41.236C54.486 41.236 55.2013 41.3133 55.82 41.468C56.4773 41.6227 57.0187 41.874 57.444 42.222C57.8693 42.57 58.1787 42.9953 58.372 43.498C58.604 43.962 58.72 44.5227 58.72 45.18V62H67.13V43.208C67.13 41.352 66.5887 39.786 65.506 38.51C64.4233 37.234 62.954 36.2673 61.098 35.61C59.242 34.914 57.1347 34.566 54.776 34.566C52.2627 34.566 49.9427 34.8947 47.816 35.552C45.6893 36.2093 43.872 36.9053 42.364 37.64L45.322 43.498ZM80.6476 74.76V35.32H71.8896V74.76H80.6476ZM102.456 48.66C102.456 45.528 101.837 42.918 100.6 40.83C99.401 38.7033 97.835 37.0987 95.9016 36.016C94.007 34.9333 91.9576 34.392 89.7536 34.392C87.4336 34.392 85.423 34.9913 83.7216 36.19C82.059 37.35 80.783 38.9933 79.8936 41.12C79.0043 43.2467 78.5596 45.76 78.5596 48.66C78.5596 51.5213 79.0043 54.0347 79.8936 56.2C80.783 58.3267 82.059 59.9893 83.7216 61.188C85.423 62.348 87.4336 62.928 89.7536 62.928C91.9576 62.928 94.007 62.3867 95.9016 61.304C97.835 60.2213 99.401 58.6167 100.6 56.49C101.837 54.3633 102.456 51.7533 102.456 48.66ZM93.2336 48.66C93.2336 50.052 92.9436 51.2313 92.3636 52.198C91.7836 53.1647 91.0103 53.8993 90.0436 54.402C89.077 54.9047 88.0136 55.156 86.8536 55.156C85.8483 55.156 84.8623 54.924 83.8956 54.46C82.9676 53.9573 82.1943 53.2227 81.5756 52.256C80.957 51.2893 80.6476 50.0907 80.6476 48.66C80.6476 47.2293 80.957 46.0307 81.5756 45.064C82.1943 44.0973 82.9676 43.382 83.8956 42.918C84.8623 42.4153 85.8483 42.164 86.8536 42.164C88.0136 42.164 89.077 42.4153 90.0436 42.918C91.0103 43.4207 91.7836 44.1553 92.3636 45.122C92.9436 46.0887 93.2336 47.268 93.2336 48.66ZM112.791 53.648C112.791 52.9907 112.945 52.4493 113.255 52.024C113.564 51.56 114.028 51.212 114.647 50.98C115.265 50.748 116.097 50.632 117.141 50.632C118.494 50.632 119.77 50.8253 120.969 51.212C122.206 51.56 123.289 52.082 124.217 52.778V48.892C123.753 48.3893 123.057 47.906 122.129 47.442C121.201 46.978 120.079 46.5913 118.765 46.282C117.489 45.9727 116.039 45.818 114.415 45.818C111.089 45.818 108.518 46.572 106.701 48.08C104.883 49.5493 103.975 51.56 103.975 54.112C103.975 55.9293 104.4 57.476 105.251 58.752C106.14 60.028 107.3 60.9947 108.731 61.652C110.2 62.2707 111.785 62.58 113.487 62.58C115.188 62.58 116.773 62.29 118.243 61.71C119.712 61.0913 120.911 60.202 121.839 59.042C122.767 57.8433 123.231 56.3933 123.231 54.692L122.303 51.212C122.303 52.4493 122.032 53.4933 121.491 54.344C120.949 55.1947 120.253 55.8327 119.403 56.258C118.552 56.6833 117.624 56.896 116.619 56.896C115.923 56.896 115.285 56.78 114.705 56.548C114.125 56.2773 113.661 55.91 113.313 55.446C112.965 54.9433 112.791 54.344 112.791 53.648ZM108.905 43.498C109.291 43.266 109.91 42.976 110.761 42.628C111.611 42.2413 112.597 41.9127 113.719 41.642C114.879 41.3713 116.058 41.236 117.257 41.236C118.069 41.236 118.784 41.3133 119.403 41.468C120.06 41.6227 120.601 41.874 121.027 42.222C121.452 42.57 121.761 42.9953 121.955 43.498C122.187 43.962 122.303 44.5227 122.303 45.18V62H130.713V43.208C130.713 41.352 130.171 39.786 129.089 38.51C128.006 37.234 126.537 36.2673 124.681 35.61C122.825 34.914 120.717 34.566 118.359 34.566C115.845 34.566 113.525 34.8947 111.399 35.552C109.272 36.2093 107.455 36.9053 105.947 37.64L108.905 43.498ZM162.565 35.32H153.575L145.049 56.664L149.573 56.722L140.931 35.32H131.303L142.845 59.854L136.349 74.76H145.165L162.565 35.32Z" fill="#DC693F"/>
<path d="M170.539 53.648C170.539 52.9907 170.694 52.4493 171.003 52.024C171.312 51.56 171.776 51.212 172.395 50.98C173.014 50.748 173.845 50.632 174.889 50.632C176.242 50.632 177.518 50.8253 178.717 51.212C179.954 51.56 181.037 52.082 181.965 52.778V48.892C181.501 48.3893 180.805 47.906 179.877 47.442C178.949 46.978 177.828 46.5913 176.513 46.282C175.237 45.9727 173.787 45.818 172.163 45.818C168.838 45.818 166.266 46.572 164.449 48.08C162.632 49.5493 161.723 51.56 161.723 54.112C161.723 55.9293 162.148 57.476 162.999 58.752C163.888 60.028 165.048 60.9947 166.479 61.652C167.948 62.2707 169.534 62.58 171.235 62.58C172.936 62.58 174.522 62.29 175.991 61.71C177.46 61.0913 178.659 60.202 179.587 59.042C180.515 57.8433 180.979 56.3933 180.979 54.692L180.051 51.212C180.051 52.4493 179.78 53.4933 179.239 54.344C178.698 55.1947 178.002 55.8327 177.151 56.258C176.3 56.6833 175.372 56.896 174.367 56.896C173.671 56.896 173.033 56.78 172.453 56.548C171.873 56.2773 171.409 55.91 171.061 55.446C170.713 54.9433 170.539 54.344 170.539 53.648ZM166.653 43.498C167.04 43.266 167.658 42.976 168.509 42.628C169.36 42.2413 170.346 41.9127 171.467 41.642C172.627 41.3713 173.806 41.236 175.005 41.236C175.817 41.236 176.532 41.3133 177.151 41.468C177.808 41.6227 178.35 41.874 178.775 42.222C179.2 42.57 179.51 42.9953 179.703 43.498C179.935 43.962 180.051 44.5227 180.051 45.18V62H188.461V43.208C188.461 41.352 187.92 39.786 186.837 38.51C185.754 37.234 184.285 36.2673 182.429 35.61C180.573 34.914 178.466 34.566 176.107 34.566C173.594 34.566 171.274 34.8947 169.147 35.552C167.02 36.2093 165.203 36.9053 163.695 37.64L166.653 43.498ZM194.729 52.314L191.075 58.114C192.273 59.042 193.569 59.8927 194.961 60.666C196.353 61.4007 197.861 61.9807 199.485 62.406C201.147 62.87 202.945 63.102 204.879 63.102C208.049 63.102 210.505 62.3867 212.245 60.956C214.023 59.4867 214.913 57.3213 214.913 54.46C214.913 52.7973 214.545 51.4633 213.811 50.458C213.115 49.4527 212.167 48.6213 210.969 47.964C209.809 47.3067 208.533 46.7267 207.141 46.224C205.826 45.7213 204.705 45.3153 203.777 45.006C202.887 44.658 202.191 44.2907 201.689 43.904C201.225 43.5173 200.993 43.034 200.993 42.454C200.993 41.9513 201.186 41.5453 201.573 41.236C201.998 40.9267 202.617 40.772 203.429 40.772C204.627 40.772 205.942 41.12 207.373 41.816C208.803 42.4733 210.079 43.324 211.201 44.368L214.333 38.684C213.289 37.9107 212.167 37.234 210.969 36.654C209.809 36.074 208.552 35.61 207.199 35.262C205.884 34.914 204.453 34.74 202.907 34.74C200.973 34.74 199.253 35.03 197.745 35.61C196.275 36.19 195.096 37.0407 194.207 38.162C193.356 39.2833 192.931 40.656 192.931 42.28C192.931 43.9813 193.298 45.3733 194.033 46.456C194.767 47.5387 195.695 48.4087 196.817 49.066C197.977 49.6847 199.195 50.226 200.471 50.69C201.901 51.1153 203.023 51.5213 203.835 51.908C204.685 52.2947 205.285 52.7007 205.633 53.126C205.981 53.5127 206.155 53.996 206.155 54.576C206.155 55.1947 205.942 55.6973 205.517 56.084C205.091 56.4707 204.434 56.664 203.545 56.664C202.926 56.664 202.191 56.548 201.341 56.316C200.49 56.0453 199.504 55.6007 198.383 54.982C197.3 54.3247 196.082 53.4353 194.729 52.314ZM217.932 16.76V62H226.342V16.76H217.932ZM236.028 35.32L224.602 46.34L237.362 62H247.686L235.1 46.34L246.526 35.32H236.028Z" fill="#E18440"/>
<defs>
<clipPath id="clip0_2779_4878">
<rect width="34" height="45" fill="white" transform="translate(5.5 19.5)"/>
</clipPath>
</defs>
</svg>
