<svg width="24" height="24" viewBox="0 0 24 24" fill="none" xmlns="http://www.w3.org/2000/svg">
<path fill-rule="evenodd" clip-rule="evenodd" d="M10.4262 5.69622C8.87518 4.53274 6.70207 4.69876 5.34575 6.08436C3.87531 7.58655 3.87531 9.98859 5.34575 11.4908L12 18.2887L18.6589 11.486C20.1268 9.98648 20.1268 7.58866 18.6589 6.08911C17.3016 4.70252 15.1256 4.53985 13.5773 5.70923L12.7335 6.3465C12.3085 6.66749 11.7223 6.66845 11.2963 6.34885L10.4262 5.69622ZM12.0959 19.4815C11.93 19.5135 11.7516 19.4645 11.6242 19.3344L4.63113 12.1903C2.78018 10.2994 2.78018 7.27576 4.63113 5.38484C6.33842 3.64069 9.07387 3.43171 11.0263 4.89627L11.8963 5.5489C11.9658 5.60104 12.0615 5.60089 12.1308 5.54852L12.9746 4.91124C14.9243 3.43873 17.6644 3.64356 19.3735 5.38959C21.2219 7.27787 21.2219 10.2973 19.3735 12.1856L12.3724 19.3378C12.2974 19.4144 12.2003 19.4644 12.0959 19.4815Z" fill="#050505"/>
</svg>
