<svg width="50" height="45" viewBox="0 0 50 45" fill="none" xmlns="http://www.w3.org/2000/svg">
<path fill-rule="evenodd" clip-rule="evenodd" d="M8.67501 8.26757C12.4698 4.37375 18.5954 4.37375 22.3902 8.26757C24.0485 9.96924 26.7641 9.96924 28.4225 8.26757C31.6307 4.97554 36.5051 4.46676 40.2284 6.74122C41.3832 7.44671 42.9233 7.50188 43.8925 6.55735C44.8617 5.61282 44.8914 4.04028 43.8002 3.23976C38.2561 -0.827659 30.5529 -0.453127 25.4063 4.36336C19.6585 -1.0158 10.7218 -0.854545 5.16526 4.84713C-0.518628 10.6794 -0.518629 20.1099 5.16526 25.9422L22.0632 43.1461C23.9065 45.0227 26.9062 45.0227 28.7494 43.1461L45.6407 25.9491L45.6474 25.9422C49.0917 22.408 50.4488 17.5524 49.7188 12.977C49.47 11.4179 47.706 10.7827 46.3388 11.5721C45.3267 12.1564 44.8744 13.3536 44.9726 14.5181C45.214 17.3815 44.2701 20.3315 42.1409 22.5184L42.1376 22.5218L25.4063 39.5559L8.67501 22.5218L8.6717 22.5184C4.84585 18.589 4.84695 12.1956 8.67501 8.26757Z" fill="#9B423E"/>
</svg>
