<svg width="19" height="10" viewBox="0 0 19 10" fill="none" xmlns="http://www.w3.org/2000/svg">
<path d="M2.53368 1.71826C2.63028 1.55093 2.59682 1.3412 2.47001 1.19544C2.17231 0.853258 1.77236 0.577026 1.31881 0.577026C0.621566 0.577026 0.0721335 1.20487 0.411845 1.81375C0.521905 2.01102 0.651348 2.199 0.797665 2.37797C1.20398 2.87495 1.95651 2.71795 2.27748 2.16202L2.53368 1.71826Z" fill="black"/>
<path d="M2.35644 5.99158L1.91677 6.7531C1.64063 7.23139 1.80451 7.84298 2.2828 8.11913C2.76109 8.39527 3.37268 8.23139 3.64882 7.7531L5.31695 4.86383C6.41506 5.15933 7.51129 5.3285 8.41677 5.39278V8.42297C8.41677 8.97526 8.86449 9.42297 9.41677 9.42297C9.96906 9.42297 10.4168 8.97526 10.4168 8.42297V5.35804C11.2693 5.2732 12.2515 5.10263 13.2298 4.83116L14.9168 7.7531C15.1929 8.23139 15.8045 8.39527 16.2828 8.11913C16.7611 7.84298 16.925 7.23139 16.6488 6.7531L15.1446 4.14776C16.3847 3.58705 17.453 2.8217 18.0154 1.81375C18.3551 1.20487 17.8057 0.577026 17.1084 0.577026C16.6549 0.577026 16.2551 0.853179 15.959 1.19679C14.5274 2.85843 11.0007 3.42298 9.21361 3.42298C8.00616 3.42298 6.01195 3.15576 4.40315 2.48024L2.37102 6L2.35644 5.99158Z" fill="black"/>
</svg>
