<svg width="24" height="24" viewBox="0 0 24 24" fill="none" xmlns="http://www.w3.org/2000/svg">
<path d="M13.0426 4.31239C12.4612 3.75037 11.5389 3.75036 10.9575 4.31238L5.65453 9.43851L3.85664 11.1365C3.65588 11.3261 3.64684 11.6426 3.83645 11.8433C4.02605 12.0441 4.34251 12.0531 4.54326 11.8635L5.49996 10.96L5.50001 19C5.50002 19.8285 6.17159 20.5 7.00001 20.5H9.99999C10.2761 20.5 10.5 20.2762 10.5 20V14.5001H13.5V20C13.5 20.2762 13.7239 20.5 14 20.5H17C17.8284 20.5 18.5 19.8285 18.5 19V10.9183L19.5665 11.8726C19.7723 12.0568 20.0884 12.0392 20.2726 11.8334C20.4567 11.6276 20.4391 11.3116 20.2334 11.1274L18.3406 9.43384L13.0426 4.31239Z" fill="#050505"/>
</svg>
