<svg width="24" height="24" viewBox="0 0 24 24" fill="none" xmlns="http://www.w3.org/2000/svg">
<path fill-rule="evenodd" clip-rule="evenodd" d="M10.9575 4.31238C11.5389 3.75036 12.4612 3.75036 13.0426 4.31239L18.3476 9.44053L20.3444 11.3375C20.5446 11.5277 20.5527 11.8442 20.3625 12.0444C20.1723 12.2446 19.8558 12.2527 19.6556 12.0625L18.5001 10.9647V19C18.5001 19.8285 17.8285 20.5 17.0001 20.5H14C13.7239 20.5 13.5 20.2762 13.5 20V14.5H10.5V20C10.5 20.2762 10.2762 20.5 10 20.5H7.00006C6.17164 20.5 5.50007 19.8285 5.50006 19L5.50001 10.9647L4.34438 12.0625C4.14417 12.2527 3.82769 12.2446 3.6375 12.0444C3.44731 11.8442 3.45542 11.5277 3.65563 11.3375L5.65407 9.43901L10.9575 4.31238ZM6.5 10.0121L6.50006 19C6.50007 19.2762 6.72392 19.5 7.00006 19.5H9.50005V14C9.50005 13.7239 9.7239 13.5 10 13.5H14C14.2762 13.5 14.5 13.7239 14.5 14V19.5H17.0001C17.2762 19.5 17.5001 19.2762 17.5001 19V10.0121L12.3476 5.03137C12.1538 4.84403 11.8464 4.84403 11.6526 5.03137L6.5 10.0121Z" fill="#050505"/>
</svg>
