<svg width="24" height="24" viewBox="0 0 24 24" fill="none" xmlns="http://www.w3.org/2000/svg">
<path fill-rule="evenodd" clip-rule="evenodd" d="M5 3.5C4.17157 3.5 3.5 4.17157 3.5 5V19C3.5 19.8284 4.17157 20.5 5 20.5H19C19.8284 20.5 20.5 19.8284 20.5 19V5C20.5 4.17157 19.8284 3.5 19 3.5H5ZM16.8658 11.1773L19.5 14.1879V19C19.5 19.2761 19.2761 19.5 19 19.5H5C4.7856 19.5 4.60271 19.365 4.53165 19.1755L9.64645 14.0607C9.84171 13.8654 10.1583 13.8654 10.3536 14.0607L10.9011 14.6083C11.5088 15.2159 12.5018 15.1898 13.0767 14.551L16.1178 11.1721C16.3183 10.9493 16.6684 10.9517 16.8658 11.1773ZM8.5 10.5C9.60457 10.5 10.5 9.60457 10.5 8.5C10.5 7.39543 9.60457 6.5 8.5 6.5C7.39543 6.5 6.5 7.39543 6.5 8.5C6.5 9.60457 7.39543 10.5 8.5 10.5Z" fill="#050505"/>
</svg>
