<svg width="24" height="24" viewBox="0 0 24 24" fill="none" xmlns="http://www.w3.org/2000/svg">
<path fill-rule="evenodd" clip-rule="evenodd" d="M3.5 5C3.5 4.17157 4.17157 3.5 5 3.5H19C19.8284 3.5 20.5 4.17157 20.5 5V19C20.5 19.8284 19.8284 20.5 19 20.5H5C4.17157 20.5 3.5 19.8284 3.5 19V5ZM5 4.5C4.72386 4.5 4.5 4.72386 4.5 5V17.7929L8.93934 13.3536C9.52513 12.7678 10.4749 12.7678 11.0607 13.3536L11.6083 13.9011C11.8108 14.1037 12.1418 14.095 12.3335 13.8821L15.3745 10.5031C15.976 9.8348 17.0263 9.84214 17.6183 10.5188L19.5 12.6693V5C19.5 4.72386 19.2761 4.5 19 4.5H5ZM19.5 14.1879L16.8658 11.1773C16.6684 10.9517 16.3183 10.9493 16.1178 11.1721L13.0767 14.551C12.5018 15.1898 11.5088 15.2159 10.9011 14.6083L10.3536 14.0607C10.1583 13.8654 9.84171 13.8654 9.64645 14.0607L4.53165 19.1755C4.60271 19.365 4.7856 19.5 5 19.5H19C19.2761 19.5 19.5 19.2761 19.5 19V14.1879ZM8.50002 7C7.67159 7 7.00002 7.67157 7.00002 8.5C7.00002 9.32843 7.67159 10 8.50002 10C9.32844 10 10 9.32843 10 8.5C10 7.67157 9.32844 7 8.50002 7ZM6.00002 8.5C6.00002 7.11929 7.1193 6 8.50002 6C9.88073 6 11 7.11929 11 8.5C11 9.88071 9.88073 11 8.50002 11C7.1193 11 6.00002 9.88071 6.00002 8.5Z" fill="#050505"/>
</svg>
