<svg width="24" height="24" viewBox="0 0 24 24" fill="none" xmlns="http://www.w3.org/2000/svg">
<path fill-rule="evenodd" clip-rule="evenodd" d="M7.74403 4.5C7.52323 4.5 7.32857 4.64483 7.26512 4.85633L4.67202 13.5H10C10.2761 13.5 10.5 13.7239 10.5 14C10.5 14.8284 11.1716 15.5 12 15.5C12.8284 15.5 13.5 14.8284 13.5 14C13.5 13.7239 13.7239 13.5 14 13.5H19.328L16.7349 4.85633C16.6714 4.64483 16.4768 4.5 16.256 4.5H7.74403ZM19.5 14.5H14.45C14.2184 15.6411 13.2095 16.5 12 16.5C10.7905 16.5 9.78164 15.6411 9.55001 14.5H4.5V19C4.5 19.2761 4.72386 19.5 5 19.5H19C19.2761 19.5 19.5 19.2761 19.5 19V14.5ZM6.30729 4.56898C6.49763 3.9345 7.08162 3.5 7.74403 3.5H16.256C16.9184 3.5 17.5024 3.9345 17.6927 4.56898L20.4789 13.8563C20.4929 13.9029 20.5 13.9513 20.5 14V19C20.5 19.8284 19.8284 20.5 19 20.5H5C4.17157 20.5 3.5 19.8284 3.5 19V14C3.5 13.9513 3.5071 13.9029 3.52109 13.8563L6.30729 4.56898Z" fill="#050505"/>
</svg>
