<svg width="39" height="39" viewBox="0 0 39 39" fill="none" xmlns="http://www.w3.org/2000/svg">
<path d="M11.2384 0.550568C5.48636 0.550568 0.821777 5.21515 0.821777 10.9672V27.6339C0.821777 33.386 5.48636 38.0506 11.2384 38.0506H27.9051C33.6572 38.0506 38.3218 33.386 38.3218 27.6339V10.9672C38.3218 5.21515 33.6572 0.550568 27.9051 0.550568H11.2384ZM32.0718 4.71723C33.2218 4.71723 34.1551 5.65057 34.1551 6.80057C34.1551 7.95057 33.2218 8.8839 32.0718 8.8839C30.9218 8.8839 29.9884 7.95057 29.9884 6.80057C29.9884 5.65057 30.9218 4.71723 32.0718 4.71723ZM19.5718 8.8839C25.3239 8.8839 29.9884 13.5485 29.9884 19.3006C29.9884 25.0527 25.3239 29.7172 19.5718 29.7172C13.8197 29.7172 9.15511 25.0527 9.15511 19.3006C9.15511 13.5485 13.8197 8.8839 19.5718 8.8839ZM19.5718 13.0506C17.9142 13.0506 16.3245 13.709 15.1524 14.8811C13.9803 16.0533 13.3218 17.643 13.3218 19.3006C13.3218 20.9582 13.9803 22.5479 15.1524 23.72C16.3245 24.8921 17.9142 25.5506 19.5718 25.5506C21.2294 25.5506 22.8191 24.8921 23.9912 23.72C25.1633 22.5479 25.8218 20.9582 25.8218 19.3006C25.8218 17.643 25.1633 16.0533 23.9912 14.8811C22.8191 13.709 21.2294 13.0506 19.5718 13.0506Z" fill="#e9635d"/>
</svg>
