<svg width="24" height="24" viewBox="0 0 24 24" fill="none" xmlns="http://www.w3.org/2000/svg">
<path fill-rule="evenodd" clip-rule="evenodd" d="M13 2.5C13.2761 2.5 13.5 2.72386 13.5 3V4C13.5 4.27614 13.2761 4.5 13 4.5C12.7239 4.5 12.5 4.27614 12.5 4V3C12.5 2.72386 12.7239 2.5 13 2.5ZM6.13607 5.13619C6.33133 4.94093 6.64792 4.94093 6.84318 5.13619L7.65574 5.94876C7.851 6.14402 7.851 6.4606 7.65574 6.65586C7.46048 6.85113 7.1439 6.85113 6.94863 6.65586L6.13607 5.8433C5.94081 5.64804 5.94081 5.33145 6.13607 5.13619ZM18.8639 5.13619C19.0592 5.33145 19.0592 5.64804 18.8639 5.8433L18.1126 6.5946C17.9174 6.78986 17.6008 6.78986 17.4055 6.5946C17.2103 6.39934 17.2103 6.08276 17.4055 5.88749L18.1568 5.13619C18.3521 4.94093 18.6687 4.94093 18.8639 5.13619ZM12.5 6.5C9.73858 6.5 7.5 8.73858 7.5 11.5C7.5 14.2614 9.73858 16.5 12.5 16.5C15.2614 16.5 17.5 14.2614 17.5 11.5C17.5 8.73858 15.2614 6.5 12.5 6.5ZM6.5 11.5C6.5 8.18629 9.18629 5.5 12.5 5.5C15.8137 5.5 18.5 8.18629 18.5 11.5C18.5 14.8137 15.8137 17.5 12.5 17.5C9.18629 17.5 6.5 14.8137 6.5 11.5ZM3.5 11C3.5 10.7239 3.72386 10.5 4 10.5H5C5.27614 10.5 5.5 10.7239 5.5 11C5.5 11.2761 5.27614 11.5 5 11.5H4C3.72386 11.5 3.5 11.2761 3.5 11ZM19.5 11C19.5 10.7239 19.7239 10.5 20 10.5H21C21.2761 10.5 21.5 10.7239 21.5 11C21.5 11.2761 21.2761 11.5 21 11.5H20C19.7239 11.5 19.5 11.2761 19.5 11ZM17.3443 16.3441C17.5395 16.1489 17.8561 16.1489 18.0514 16.3441L18.8639 17.1567C19.0592 17.352 19.0592 17.6685 18.8639 17.8638C18.6687 18.0591 18.3521 18.0591 18.1568 17.8638L17.3443 17.0512C17.149 16.856 17.149 16.5394 17.3443 16.3441ZM7.59448 16.4054C7.78974 16.6007 7.78974 16.9172 7.59448 17.1125L6.84318 17.8638C6.64792 18.0591 6.33133 18.0591 6.13607 17.8638C5.94081 17.6685 5.94081 17.352 6.13607 17.1567L6.88737 16.4054C7.08263 16.2101 7.39922 16.2101 7.59448 16.4054ZM13 18.5C13.2761 18.5 13.5 18.7239 13.5 19V20C13.5 20.2761 13.2761 20.5 13 20.5C12.7239 20.5 12.5 20.2761 12.5 20V19C12.5 18.7239 12.7239 18.5 13 18.5Z" fill="#050505"/>
</svg>
