<svg width="24" height="24" viewBox="0 0 24 24" fill="none" xmlns="http://www.w3.org/2000/svg">
<path fill-rule="evenodd" clip-rule="evenodd" d="M11.6464 5.9896C13.4037 4.23224 16.253 4.23224 18.0103 5.9896C19.7677 7.74696 19.7677 10.5962 18.0103 12.3536L16.5961 13.7678C16.4009 13.963 16.0843 13.963 15.889 13.7678C15.6938 13.5725 15.6938 13.2559 15.889 13.0607L17.3032 11.6465C18.6701 10.2796 18.6701 8.06354 17.3032 6.6967C15.9364 5.32987 13.7203 5.32987 12.3535 6.6967L10.9393 8.11092C10.744 8.30618 10.4274 8.30618 10.2322 8.11092C10.0369 7.91566 10.0369 7.59907 10.2322 7.40381L11.6464 5.9896ZM14.4748 9.52513C14.6701 9.72039 14.6701 10.037 14.4748 10.2322L9.52507 15.182C9.32981 15.3772 9.01322 15.3772 8.81796 15.182C8.6227 14.9867 8.6227 14.6701 8.81796 14.4749L13.7677 9.52513C13.963 9.32987 14.2796 9.32987 14.4748 9.52513ZM8.11085 10.2322C8.30612 10.4275 8.30612 10.7441 8.11085 10.9393L6.69664 12.3536C5.32981 13.7204 5.32981 15.9365 6.69664 17.3033C8.06348 18.6701 10.2796 18.6701 11.6464 17.3033L13.0606 15.8891C13.2559 15.6938 13.5724 15.6938 13.7677 15.8891C13.963 16.0844 13.963 16.4009 13.7677 16.5962L12.3535 18.0104C10.5961 19.7678 7.74689 19.7678 5.98953 18.0104C4.23218 16.2531 4.23218 13.4038 5.98953 11.6465L7.40375 10.2322C7.59901 10.037 7.91559 10.037 8.11085 10.2322Z" fill="#050505"/>
</svg>
