<svg width="24" height="24" viewBox="0 0 24 24" fill="none" xmlns="http://www.w3.org/2000/svg">
<path fill-rule="evenodd" clip-rule="evenodd" d="M12.0332 11.5C11.0206 11.5 10.1998 12.3208 10.1998 13.3333C10.1998 13.8744 10.4345 14.3604 10.8062 14.6955L10.5368 16.9404C10.5197 17.0824 10.5643 17.2249 10.6592 17.3318C10.7541 17.4388 10.8902 17.5 11.0332 17.5H13.0332C13.1762 17.5 13.3123 17.4388 13.4072 17.3318C13.5021 17.2249 13.5467 17.0824 13.5296 16.9404L13.2602 14.6955C13.6319 14.3603 13.8665 13.8744 13.8665 13.3333C13.8665 12.3208 13.0457 11.5 12.0332 11.5ZM11.1998 13.3333C11.1998 12.8731 11.5729 12.5 12.0332 12.5C12.4934 12.5 12.8665 12.8731 12.8665 13.3333C12.8665 13.6335 12.7082 13.8971 12.4681 14.0444C12.3016 14.1465 12.2099 14.3362 12.2332 14.5301L12.4696 16.5H11.5968L11.8332 14.5302C11.8565 14.3363 11.7648 14.1466 11.5983 14.0444C11.3582 13.8971 11.1998 13.6335 11.1998 13.3333Z" fill="#050505"/>
<path fill-rule="evenodd" clip-rule="evenodd" d="M7.5 8V8.5H5C4.17157 8.5 3.5 9.17157 3.5 10V19C3.5 19.8284 4.17157 20.5 5 20.5H19C19.8284 20.5 20.5 19.8284 20.5 19V10C20.5 9.17157 19.8284 8.5 19 8.5H16.5V8C16.5 5.51472 14.4853 3.5 12 3.5C9.51472 3.5 7.5 5.51472 7.5 8ZM12 4.5C10.067 4.5 8.5 6.067 8.5 8V8.5H15.5V8C15.5 6.067 13.933 4.5 12 4.5ZM5 9.5H19C19.2761 9.5 19.5 9.72386 19.5 10V19C19.5 19.2761 19.2761 19.5 19 19.5H5C4.72386 19.5 4.5 19.2761 4.5 19V10C4.5 9.72386 4.72386 9.5 5 9.5Z" fill="#050505"/>
</svg>
