<svg width="24" height="24" viewBox="0 0 24 24" fill="none" xmlns="http://www.w3.org/2000/svg">
<path fill-rule="evenodd" clip-rule="evenodd" d="M7.5 9V8C7.5 5.51472 9.51472 3.5 12 3.5C14.4853 3.5 16.5 5.51472 16.5 8V9H19C19.5523 9 20 9.44772 20 10V19C20 19.5523 19.5523 20 19 20H5C4.44772 20 4 19.5523 4 19V10C4 9.44771 4.44772 9 5 9H7.5ZM8.5 8C8.5 6.067 10.067 4.5 12 4.5C13.933 4.5 15.5 6.067 15.5 8V9H8.5V8ZM12.7296 14.4705C13.1117 14.2361 13.3665 13.8145 13.3665 13.3333C13.3665 12.597 12.7695 12 12.0332 12C11.2968 12 10.6998 12.597 10.6998 13.3333C10.6998 13.8145 10.9547 14.2361 11.3368 14.4706L11.0332 17H13.0332L12.7296 14.4705Z" fill="#050505"/>
</svg>
