<svg width="49" height="48" viewBox="0 0 49 48" fill="none" xmlns="http://www.w3.org/2000/svg">
<path d="M13.1484 39.9789C13.2086 39.9705 13.2663 39.9499 13.3243 39.932C13.4942 39.8795 13.6817 39.9103 13.8291 40.016C21.5209 45.5313 32.2933 44.8331 39.2051 37.9213C46.8936 30.2328 46.8936 17.7673 39.2051 10.0789C31.5166 2.39038 19.0511 2.39038 11.3626 10.0789C4.45084 16.9907 3.75262 27.7631 9.26796 35.4549C9.39167 35.6274 9.41277 35.8548 9.31783 36.0447L6.80272 40.8752L13.1484 39.9789Z" fill="#E9635D"/>
<path fill-rule="evenodd" clip-rule="evenodd" d="M1.7845 44.4244L6.20511 35.9343C0.760493 27.2451 1.81506 15.6497 9.3746 8.09013C18.1614 -0.696709 32.4077 -0.696709 41.1945 8.09013C49.9814 16.877 49.9814 31.1232 41.1945 39.9101C33.5274 47.5772 21.7086 48.5529 12.9811 42.8431L1.7845 44.4244ZM9.31783 36.0447L6.80272 40.8752L13.1484 39.9789C13.1981 39.9719 13.2467 39.9567 13.2946 39.9416C13.3047 39.9383 13.3142 39.9351 13.3243 39.932C13.4942 39.8795 13.6817 39.9103 13.8291 40.016C21.5209 45.5313 32.2933 44.8331 39.2051 37.9213C46.8936 30.2328 46.8936 17.7673 39.2051 10.0789C31.5166 2.39038 19.0511 2.39038 11.3626 10.0789C4.45084 16.9907 3.75262 27.7631 9.26796 35.4549C9.39167 35.6274 9.41277 35.8548 9.31783 36.0447Z" fill="#F7F7F7"/>
<path fill-rule="evenodd" clip-rule="evenodd" d="M0 45.6864L5.05759 35.9729C-0.287061 26.9559 0.912993 15.1375 8.66749 7.38302C17.8448 -1.79434 32.7243 -1.79434 41.9016 7.38302C51.079 16.5604 51.079 31.4398 41.9016 40.6172C33.986 48.5328 21.8357 49.6189 12.7531 43.8852L0 45.6864ZM12.9811 42.8431C21.7086 48.5529 33.5274 47.5772 41.1945 39.9101C49.9814 31.1232 49.9814 16.877 41.1945 8.09013C32.4077 -0.696709 18.1614 -0.696709 9.3746 8.09013C1.81506 15.6497 0.760493 27.2451 6.20511 35.9343L1.7845 44.4244L12.9811 42.8431ZM10.2093 36.4992L8.58792 39.6132L12.9761 38.9935L12.9923 38.9883L13.0298 38.9765C13.503 38.8304 14.0147 38.9181 14.4125 39.2033C21.713 44.4381 31.9387 43.7742 38.4987 37.2142C45.7966 29.9163 45.7966 18.0839 38.4987 10.786C31.2007 3.48802 19.3684 3.48802 12.0705 10.786C5.51042 17.346 4.8466 27.5717 10.0813 34.8721C10.4145 35.3368 10.479 35.9599 10.213 36.4919L10.2093 36.4992ZM8.02034 40.7033L6.80272 40.8752L7.37101 39.7851" fill="#E9635D"/>
<path d="M22.6537 14.1106C23.7386 12.2479 26.4294 12.2479 27.5143 14.1106L29.0064 16.6723C29.4038 17.3546 30.0697 17.8384 30.8415 18.0055L33.7389 18.633C35.8456 19.0892 36.6771 21.6483 35.2409 23.2557L33.2657 25.4664C32.7395 26.0552 32.4852 26.838 32.5647 27.6236L32.8633 30.5731C33.0805 32.7177 30.9035 34.2994 28.931 33.4301L26.2181 32.2347C25.4956 31.9163 24.6724 31.9163 23.9499 32.2347L21.237 33.4301C19.2645 34.2994 17.0875 32.7177 17.3047 30.5731L17.6033 27.6236C17.6828 26.838 17.4285 26.0552 16.9024 25.4664L14.9271 23.2557C13.4909 21.6483 14.3224 19.0892 16.4291 18.633L19.3265 18.0055C20.0983 17.8384 20.7642 17.3546 21.1616 16.6723L22.6537 14.1106Z" fill="#F7F7F7"/>
</svg>
