<svg width="24" height="24" viewBox="0 0 24 24" fill="none" xmlns="http://www.w3.org/2000/svg">
<path fill-rule="evenodd" clip-rule="evenodd" d="M5.5 5.49951C5.5 4.67108 6.17157 3.99951 7 3.99951H19C19.8284 3.99951 20.5 4.67108 20.5 5.49951V12.6245V16.4995C20.5 17.3279 19.8284 17.9995 19 17.9995H6.8125C6.08763 17.9995 5.5 17.4119 5.5 16.687V10.9995V5.49951ZM7 4.99951C6.72386 4.99951 6.5 5.22337 6.5 5.49951V10.9995V15.5404L10.2293 12.0775C10.8048 11.543 11.6952 11.543 12.2707 12.0775L12.6229 12.4046C12.8222 12.5896 13.1329 12.5815 13.3222 12.3862L15.8502 9.77789C16.4453 9.16387 17.4326 9.17082 18.019 9.79315L19.5 11.3648V5.49951C19.5 5.22337 19.2761 4.99951 19 4.99951H7ZM19.5 12.823L17.2912 10.479C17.0957 10.2715 16.7667 10.2692 16.5683 10.4739L14.0403 13.0821C13.4724 13.668 12.5404 13.6926 11.9425 13.1374L11.5902 12.8103C11.3984 12.6321 11.1016 12.6321 10.9098 12.8103L6.5508 16.8579C6.6066 16.9432 6.70297 16.9995 6.8125 16.9995H19C19.2761 16.9995 19.5 16.7757 19.5 16.4995V12.823ZM10.5 7.5C9.94772 7.5 9.5 7.94772 9.5 8.5C9.5 9.05228 9.94772 9.5 10.5 9.5C11.0523 9.5 11.5 9.05228 11.5 8.5C11.5 7.94772 11.0523 7.5 10.5 7.5ZM8.5 8.5C8.5 7.39543 9.39543 6.5 10.5 6.5C11.6046 6.5 12.5 7.39543 12.5 8.5C12.5 9.60457 11.6046 10.5 10.5 10.5C9.39543 10.5 8.5 9.60457 8.5 8.5ZM4.5 6.49951C4.5 6.22337 4.27614 5.99951 4 5.99951C3.72386 5.99951 3.5 6.22337 3.5 6.49951V17.4995C3.5 18.8802 4.61929 19.9995 6 19.9995H18C18.2761 19.9995 18.5 19.7757 18.5 19.4995C18.5 19.2234 18.2761 18.9995 18 18.9995H6C5.17157 18.9995 4.5 18.3279 4.5 17.4995V6.49951Z" fill="#050505"/>
</svg>
