<svg xmlns="http://www.w3.org/2000/svg" width="44.279" height="52.305" viewBox="0 0 44.279 52.305">
  <path id="Icon_awesome-paypal" data-name="Icon awesome-paypal" d="M12.845,32.809c-.4,2.214-2.007,12.537-2.48,15.455-.035.208-.115.288-.346.288h-8.6a1.4,1.4,0,0,1-1.4-1.6L6.778,4.055A2.342,2.342,0,0,1,9.085,2.106c17.566,0,19.042-.427,23.529,1.315,6.932,2.687,7.566,9.169,5.075,16.182-2.48,7.22-8.362,10.323-16.159,10.415-5.006.081-8.016-.807-8.685,2.791Zm28.338-16.6c-.208-.15-.288-.208-.346.15a26.994,26.994,0,0,1-1.015,3.875c-4.6,13.125-17.358,11.983-23.586,11.983A1.16,1.16,0,0,0,14.978,33.3C12.372,49.5,11.853,52.877,11.853,52.877a1.228,1.228,0,0,0,1.223,1.488H20.4a2.069,2.069,0,0,0,2.007-1.719c.081-.623-.127.7,1.661-10.53.531-2.537,1.649-2.272,3.379-2.272,8.189,0,14.578-3.322,16.482-12.952.75-4.014.531-8.235-2.745-10.68Z" transform="translate(-0.006 -2.06)" fill="#fff"/>
</svg>
