<svg width="52" height="53" viewBox="0 0 52 53" fill="none" xmlns="http://www.w3.org/2000/svg">
<path d="M36.1942 7.26278C37.0403 6.41664 38.4122 6.41664 39.2583 7.26278L46.4217 14.4262C47.2679 15.2723 47.2679 16.6442 46.4217 17.4903L44.4631 19.449C43.6169 20.2951 42.2451 20.2951 41.3989 19.449L34.2355 12.2856C33.3894 11.4394 33.3894 10.0676 34.2355 9.22143L36.1942 7.26278Z" fill="black"/>
<path d="M38.3348 25.5772C39.1809 24.7311 39.181 23.3592 38.3348 22.5131L31.1714 15.3497C30.3253 14.5036 28.9534 14.5036 28.1073 15.3497L11.9247 31.5323C11.6178 31.8391 11.4102 32.2311 11.3287 32.6573L9.6344 41.515C9.34686 43.0182 10.6663 44.3376 12.1695 44.0501L21.0272 42.3558C21.4534 42.2743 21.8454 42.0667 22.1522 41.7598L38.3348 25.5772Z" fill="black"/>
</svg>
