<svg width="24" height="24" viewBox="0 0 24 24" fill="none" xmlns="http://www.w3.org/2000/svg">
<path d="M16.7775 4.4074C17.168 4.01687 17.8012 4.01687 18.1917 4.4074L19.6059 5.8216C19.9964 6.21212 19.9964 6.84529 19.6059 7.23581L7.52894 19.3128C7.39296 19.4487 7.22065 19.5426 7.03267 19.5832L5.22956 19.9721C4.51937 20.1253 3.88802 19.4939 4.0412 18.7837L4.43012 16.9806C4.47066 16.7926 4.56455 16.6203 4.70053 16.4843L16.7775 4.4074Z" fill="#050505"/>
<path fill-rule="evenodd" clip-rule="evenodd" d="M9.49994 19.9999C9.49994 19.7238 9.7238 19.4999 9.99994 19.4999H18.9999C19.2761 19.4999 19.4999 19.7238 19.4999 19.9999C19.4999 20.276 19.2761 20.4999 18.9999 20.4999H9.99994C9.7238 20.4999 9.49994 20.276 9.49994 19.9999Z" fill="#050505"/>
</svg>
