<svg width="24" height="24" viewBox="0 0 24 24" fill="none" xmlns="http://www.w3.org/2000/svg">
<path fill-rule="evenodd" clip-rule="evenodd" d="M16.424 4.05384C17.0098 3.46806 17.9595 3.46806 18.5453 4.05384L19.9595 5.46804C20.5453 6.05383 20.5453 7.00358 19.9595 7.58937L7.88258 19.6663C7.67861 19.8703 7.42015 20.0111 7.13818 20.0719L5.33507 20.4608C4.26977 20.6906 3.32275 19.7436 3.55253 18.6783L3.94144 16.8752C4.00226 16.5932 4.14309 16.3348 4.34706 16.1308L16.424 4.05384ZM17.8382 4.76095C17.643 4.56569 17.3264 4.56569 17.1311 4.76095L16.0705 5.8216L18.1918 7.94292L19.2524 6.88226C19.4477 6.687 19.4477 6.37041 19.2524 6.17515L17.8382 4.76095ZM17.4847 8.65002L15.3633 6.52871L5.05417 16.8379C4.98618 16.9059 4.93923 16.992 4.91896 17.086L4.53005 18.8891C4.45346 19.2442 4.76913 19.5599 5.12423 19.4833L6.92734 19.0944C7.02133 19.0741 7.10748 19.0272 7.17547 18.9592L17.4847 8.65002Z" fill="#050505"/>
<path fill-rule="evenodd" clip-rule="evenodd" d="M9.50003 19.9999C9.50003 19.7238 9.72389 19.4999 10 19.4999H19C19.2762 19.4999 19.5 19.7238 19.5 19.9999C19.5 20.276 19.2762 20.4999 19 20.4999H10C9.72389 20.4999 9.50003 20.276 9.50003 19.9999Z" fill="#050505"/>
</svg>
