<svg width="41" height="41" viewBox="0 0 41 41" fill="none" xmlns="http://www.w3.org/2000/svg">
<path d="M20.6414 0.300568C9.59636 0.300568 0.641357 9.25557 0.641357 20.3006C0.641357 28.7739 5.91302 36.0106 13.353 38.9239C13.178 37.3422 13.0197 34.9139 13.423 33.1872C13.7864 31.6272 15.768 23.2456 15.768 23.2456C15.768 23.2456 15.1697 22.0472 15.1697 20.2772C15.1697 17.4956 16.7814 15.4206 18.788 15.4206C20.4947 15.4206 21.318 16.7022 21.318 18.2372C21.318 19.9539 20.2264 22.5189 19.6614 24.8956C19.1897 26.8872 20.6597 28.5106 22.623 28.5106C26.178 28.5106 28.9097 24.7622 28.9097 19.3522C28.9097 14.5639 25.4697 11.2156 20.5564 11.2156C14.8664 11.2156 11.5264 15.4839 11.5264 19.8956C11.5264 21.6139 12.188 23.4572 13.0147 24.4606C13.178 24.6589 13.2014 24.8322 13.153 25.0339C13.0014 25.6656 12.6647 27.0239 12.598 27.3022C12.5114 27.6689 12.308 27.7456 11.9297 27.5689C9.43136 26.4056 7.86969 22.7539 7.86969 19.8206C7.86969 13.5122 12.453 7.71723 21.0847 7.71723C28.023 7.71723 33.4147 12.6606 33.4147 19.2689C33.4147 26.1622 29.068 31.7089 23.0364 31.7089C21.0097 31.7089 19.1047 30.6556 18.453 29.4122C18.453 29.4122 17.4497 33.2306 17.2064 34.1672C16.7547 35.9039 15.5364 38.0822 14.7197 39.4106C16.5914 39.9872 18.5797 40.3006 20.6414 40.3006C31.6864 40.3006 40.6414 31.3456 40.6414 20.3006C40.6414 9.25557 31.6864 0.300568 20.6414 0.300568Z" fill="#e9635d"/>
</svg>
