<svg width="22" height="22" viewBox="0 0 22 22" fill="none" xmlns="http://www.w3.org/2000/svg">
<path d="M20.4725 19.1285L20.8261 18.775L20.4725 18.4214L19.7654 17.7143L15.4585 13.4074C16.3308 12.1259 16.8408 10.5774 16.8408 8.91101C16.8408 4.49273 13.2591 0.911011 8.84082 0.911011C4.42254 0.911011 0.84082 4.49273 0.84082 8.91101C0.84082 13.3293 4.42254 16.911 8.84082 16.911C10.5072 16.911 12.0557 16.401 13.3372 15.5287L17.6441 19.8356L18.3512 20.5427L18.7048 20.8963L19.0583 20.5427L20.4725 19.1285ZM13.8408 8.91101C13.8408 11.6724 11.6022 13.911 8.84082 13.911C6.0794 13.911 3.84082 11.6724 3.84082 8.91101C3.84082 6.14959 6.0794 3.91101 8.84082 3.91101C11.6022 3.91101 13.8408 6.14959 13.8408 8.91101Z" fill="#C22A23" stroke="#C22A23" stroke-linecap="square"/>
</svg>
