<svg width="24" height="24" viewBox="0 0 24 24" fill="none" xmlns="http://www.w3.org/2000/svg">
<path fill-rule="evenodd" clip-rule="evenodd" d="M10.125 4.5C7.02138 4.5 4.5 7.03283 4.5 10.1639C4.5 13.295 7.02138 15.8278 10.125 15.8278C11.698 15.8278 13.12 15.1783 14.1418 14.1289C15.1368 13.1071 15.75 11.7084 15.75 10.1639C15.75 7.03283 13.2286 4.5 10.125 4.5ZM3.5 10.1639C3.5 6.48653 6.46313 3.5 10.125 3.5C13.7869 3.5 16.75 6.48653 16.75 10.1639C16.75 11.8007 16.1628 13.3008 15.1889 14.4609L20.3543 19.6472C20.5491 19.8428 20.5485 20.1594 20.3528 20.3543C20.1572 20.5491 19.8406 20.5485 19.6457 20.3528L14.4904 15.1767C13.3252 16.204 11.7974 16.8278 10.125 16.8278C6.46313 16.8278 3.5 13.8413 3.5 10.1639Z" fill="#050505"/>
</svg>
