<svg width="21" height="12" viewBox="0 0 21 12" fill="none" xmlns="http://www.w3.org/2000/svg">
<path fill-rule="evenodd" clip-rule="evenodd" d="M1.57654 4.18689C3.69376 1.59818 7.1302 0 10.9051 0C14.68 0 18.1165 1.59818 20.2337 4.18689C21.0971 5.24261 21.0971 6.7574 20.2337 7.81312C18.1165 10.4018 14.68 12 10.9051 12C8.88963 12 6.97063 11.5444 5.29739 10.7257C4.72083 10.4436 4.6352 9.68413 5.08907 9.23026L5.12401 9.19532C5.4416 8.87773 5.92988 8.81557 6.3367 9.00589C6.99403 9.3134 7.69924 9.55661 8.44047 9.72549C7.77973 9.28749 7.24226 8.67841 6.89124 7.96143C6.60137 7.36935 6.43864 6.70368 6.43864 6C6.43864 5.79856 6.45198 5.60023 6.47781 5.40585C6.7016 5.67158 6.99303 5.87847 7.32555 6C7.54063 6.0786 7.77291 6.12149 8.0152 6.12149C8.16088 6.12149 8.30293 6.10599 8.43981 6.07654C9.34545 5.88168 10.0243 5.07634 10.0243 4.11245C10.0243 3.97485 10.0104 3.84048 9.98407 3.71066C9.84342 3.01774 9.34615 2.45432 8.69218 2.22031C6.39733 2.68594 4.42793 3.85962 3.12469 5.45307C2.86371 5.77217 2.86371 6.22784 3.12469 6.54693C3.1751 6.60857 3.2265 6.66957 3.27889 6.72994C3.65253 7.16049 3.6752 7.8157 3.2721 8.2188C2.89508 8.59582 2.28367 8.61201 1.92514 8.21738C1.80531 8.08548 1.68906 7.9507 1.57654 7.81312C0.713095 6.7574 0.713095 5.24261 1.57654 4.18689ZM13.3698 2.27451C14.5761 3.07422 15.3716 4.44421 15.3716 6C15.3716 7.55579 14.5761 8.92579 13.3698 9.72549C15.5568 9.22722 17.4302 8.08182 18.6855 6.54693C18.9465 6.22784 18.9465 5.77217 18.6855 5.45307C17.4302 3.91819 15.5568 2.77279 13.3698 2.27451ZM13.3716 6C13.3716 7.3622 12.2673 8.46647 10.9051 8.46647C10.3074 8.46647 9.75929 8.25384 9.33239 7.90009C10.8995 7.35518 12.0243 5.86516 12.0243 4.11245C12.0243 4.00565 12.0201 3.89985 12.0119 3.79519C12.8183 4.20079 13.3716 5.03578 13.3716 6Z" fill="black"/>
</svg>
