<svg width="24" height="24" viewBox="0 0 24 24" fill="none" xmlns="http://www.w3.org/2000/svg">
<path fill-rule="evenodd" clip-rule="evenodd" d="M3.5 5.61815C3.5 4.50307 4.67347 3.77783 5.67082 4.27651L18.4348 10.6585C19.5403 11.2113 19.5403 12.789 18.4348 13.3418L5.67082 19.7237C4.67347 20.2224 3.5 19.4972 3.5 18.3821V5.61815ZM5.22361 5.17093C4.89116 5.00471 4.5 5.24646 4.5 5.61815V11.5001H12C12.2761 11.5001 12.5 11.724 12.5 12.0001C12.5 12.2763 12.2761 12.5001 12 12.5001H4.5V18.3821C4.5 18.7538 4.89116 18.9955 5.22361 18.8293L17.9875 12.4473C18.3561 12.2631 18.3561 11.7372 17.9875 11.5529L5.22361 5.17093Z" fill="#050505"/>
</svg>
