<svg width="50" height="45" viewBox="0 0 50 45" fill="none" xmlns="http://www.w3.org/2000/svg">
<path d="M9.44827 30.2149C10.5502 29.2232 10.5502 27.6152 9.44828 26.6235C8.3464 25.6317 6.55989 25.6317 5.45801 26.6234L1.99219 29.7429C0.890301 30.7346 0.890297 32.3425 1.99218 33.3343C3.09406 34.326 4.88056 34.326 5.98245 33.3343L9.44827 30.2149Z" fill="#9B423E"/>
<path d="M15.0913 35.294C16.1932 34.3022 16.1932 32.6943 15.0913 31.7025C13.9895 30.7108 12.2029 30.7108 11.1011 31.7025L4.52209 37.6239C3.4202 38.6157 3.42021 40.2236 4.52209 41.2154C5.62397 42.2071 7.41048 42.2071 8.51236 41.2154L15.0913 35.294Z" fill="#9B423E"/>
<path d="M20.7344 36.7816C21.8363 37.7733 21.8363 39.3813 20.7344 40.373L17.491 43.2923C16.3891 44.284 14.6026 44.284 13.5007 43.2923C12.3988 42.3005 12.3988 40.6926 13.5007 39.7008L16.7442 36.7816C17.846 35.7898 19.6326 35.7898 20.7344 36.7816Z" fill="#9B423E"/>
<path fill-rule="evenodd" clip-rule="evenodd" d="M8.16837 17.0665L15.5926 23.7942L17.8844 25.8551L29.7093 15.2121C30.7163 14.3058 32.3489 14.3058 33.3559 15.2121C34.3629 16.1185 34.3629 17.588 33.3559 18.4943L21.5328 29.1358L23.4265 30.8387C24.4358 31.7462 24.4362 33.2184 23.4274 34.1264C22.4213 35.0319 20.791 35.0344 19.7816 34.1319L18.5808 33.0584C16.5226 31.2185 15.8784 30.6399 13.6357 28.6077L1.86272 17.9392C0.355087 16.5823 0.672197 14.4646 2.46551 13.9137L45.8976 0.57264C48.1024 -0.104631 50.5198 2.07109 49.7673 4.05558L34.9447 43.1466C34.3326 44.7607 31.9798 45.0461 30.4722 43.6892L27.1022 40.6765C26.0894 39.771 26.0866 38.2973 27.096 37.3888C28.1006 36.4846 29.7285 36.4821 30.7365 37.3832L31.4418 38.0137L43.4997 6.21375L8.16837 17.0665Z" fill="#9B423E"/>
</svg>
