<svg width="24" height="24" viewBox="0 0 24 24" fill="none" xmlns="http://www.w3.org/2000/svg">
<path fill-rule="evenodd" clip-rule="evenodd" d="M8 4.5C8.27614 4.5 8.5 4.72386 8.5 5V6H20C20.2761 6 20.5 6.22386 20.5 6.5C20.5 6.77614 20.2761 7 20 7H8.5V8C8.5 8.27614 8.27614 8.5 8 8.5C7.72386 8.5 7.5 8.27614 7.5 8V5C7.5 4.72386 7.72386 4.5 8 4.5ZM3.5 6.5C3.5 6.22386 3.72386 6 4 6H6C6.27614 6 6.5 6.22386 6.5 6.5C6.5 6.77614 6.27614 7 6 7H4C3.72386 7 3.5 6.77614 3.5 6.5ZM16 10C16.2761 10 16.5 10.2239 16.5 10.5V13.5C16.5 13.7761 16.2761 14 16 14C15.7239 14 15.5 13.7761 15.5 13.5V12.5H4C3.72386 12.5 3.5 12.2761 3.5 12C3.5 11.7238 3.72386 11.5 4 11.5H15.5V10.5C15.5 10.2239 15.7239 10 16 10ZM17.5 12C17.5 11.7238 17.7239 11.5 18 11.5H20C20.2761 11.5 20.5 11.7238 20.5 12C20.5 12.2761 20.2761 12.5 20 12.5H18C17.7239 12.5 17.5 12.2761 17.5 12ZM12 15.5C12.2761 15.5 12.5 15.7239 12.5 16V19C12.5 19.2761 12.2761 19.5 12 19.5C11.7239 19.5 11.5 19.2761 11.5 19V18H4C3.72386 18 3.5 17.7761 3.5 17.5C3.5 17.2239 3.72386 17 4 17H11.5V16C11.5 15.7239 11.7239 15.5 12 15.5ZM13.5 17.5C13.5 17.2239 13.7239 17 14 17H20C20.2761 17 20.5 17.2239 20.5 17.5C20.5 17.7761 20.2761 18 20 18H14C13.7239 18 13.5 17.7761 13.5 17.5Z" fill="#050505"/>
</svg>
