<svg width="24" height="24" viewBox="0 0 24 24" fill="none" xmlns="http://www.w3.org/2000/svg">
<path fill-rule="evenodd" clip-rule="evenodd" d="M11 3.5C10.7239 3.5 10.5 3.72386 10.5 4V5.66275L10.1426 5.76911C9.71065 5.89767 9.29742 6.06998 8.90806 6.28096L8.58007 6.45869L7.40383 5.28245C7.20857 5.08718 6.89198 5.08718 6.69672 5.28245L5.28251 6.69666C5.08725 6.89192 5.08725 7.2085 5.28251 7.40377L6.45874 8.57999L6.28101 8.90798C6.07 9.29737 5.89768 9.71062 5.76911 10.1426L5.66275 10.5H4C3.72386 10.5 3.5 10.7239 3.5 11V13C3.5 13.2761 3.72386 13.5 4 13.5H5.66274L5.7691 13.8574C5.89768 14.2894 6.07 14.7026 6.281 15.092L6.45874 15.42L5.28245 16.5963C5.08718 16.7916 5.08718 17.1081 5.28245 17.3034L6.69666 18.7176C6.89192 18.9129 7.2085 18.9129 7.40377 18.7176L8.58007 17.5413L8.90805 17.719C9.29742 17.93 9.71064 18.1023 10.1426 18.2309L10.5 18.3373V20C10.5 20.2761 10.7239 20.5 11 20.5H13C13.2761 20.5 13.5 20.2761 13.5 20V18.3373L13.8574 18.2309C14.2894 18.1023 14.7026 17.93 15.092 17.719L15.42 17.5413L16.5962 18.7175C16.7915 18.9127 17.1081 18.9127 17.3033 18.7175L18.7175 17.3033C18.9128 17.108 18.9128 16.7914 18.7175 16.5962L17.5413 15.4199L17.719 15.0919C17.93 14.7026 18.1023 14.2894 18.2309 13.8574L18.3373 13.5H20C20.2761 13.5 20.5 13.2761 20.5 13V11C20.5 10.7239 20.2761 10.5 20 10.5H18.3373L18.2309 10.1426C18.1023 9.71064 17.93 9.29742 17.719 8.90805L17.5413 8.58007L18.7175 7.4039C18.9127 7.20864 18.9127 6.89206 18.7175 6.6968L17.3033 5.28258C17.108 5.08732 16.7914 5.08732 16.5962 5.28258L15.42 6.45874L15.092 6.281C14.7026 6.07 14.2894 5.89768 13.8574 5.76911L13.5 5.66275V4C13.5 3.72386 13.2761 3.5 13 3.5H11ZM9.5 4C9.5 3.17157 10.1716 2.5 11 2.5H13C13.8284 2.5 14.5 3.17157 14.5 4V4.92691C14.7509 5.0156 14.9957 5.11724 15.2335 5.23103L15.889 4.57548C16.4748 3.98969 17.4246 3.98969 18.0104 4.57548L19.4246 5.98969C20.0104 6.57548 20.0104 7.52522 19.4246 8.11101L18.769 8.76659C18.8828 9.00437 18.9844 9.24911 19.0731 9.5H20C20.8284 9.5 21.5 10.1716 21.5 11V13C21.5 13.8284 20.8284 14.5 20 14.5H19.0731C18.9844 14.7509 18.8828 14.9956 18.769 15.2334L19.4246 15.889C20.0104 16.4748 20.0104 17.4246 19.4246 18.0104L18.0104 19.4246C17.4246 20.0104 16.4749 20.0104 15.8891 19.4246L15.2335 18.769C14.9957 18.8828 14.7509 18.9844 14.5 19.0731V20C14.5 20.8284 13.8284 21.5 13 21.5H11C10.1716 21.5 9.5 20.8284 9.5 20V19.0731C9.24911 18.9844 9.00437 18.8828 8.76659 18.769L8.11087 19.4247C7.52509 20.0105 6.57534 20.0105 5.98955 19.4247L4.57534 18.0105C3.98955 17.4247 3.98955 16.475 4.57534 15.8892L5.23103 15.2335C5.11724 14.9957 5.0156 14.7509 4.92691 14.5H4C3.17157 14.5 2.5 13.8284 2.5 13V11C2.5 10.1716 3.17157 9.5 4 9.5H4.92691C5.0156 9.24908 5.11724 9.00432 5.23104 8.7665L4.5754 8.11087C3.98962 7.52509 3.98962 6.57534 4.5754 5.98955L5.98962 4.57534C6.5754 3.98955 7.52515 3.98955 8.11094 4.57534L8.76659 5.23099C9.00438 5.11722 9.24911 5.01559 9.5 4.92691V4ZM12 9.5C10.6193 9.5 9.5 10.6193 9.5 12C9.5 13.3807 10.6193 14.5 12 14.5C13.3807 14.5 14.5 13.3807 14.5 12C14.5 10.6193 13.3807 9.5 12 9.5ZM8.5 12C8.5 10.067 10.067 8.5 12 8.5C13.933 8.5 15.5 10.067 15.5 12C15.5 13.933 13.933 15.5 12 15.5C10.067 15.5 8.5 13.933 8.5 12Z" fill="#050505"/>
</svg>
