<svg width="97" height="96" viewBox="0 0 97 96" fill="none" xmlns="http://www.w3.org/2000/svg">
<path fill-rule="evenodd" clip-rule="evenodd" d="M48.7155 16.0001C47.8719 16.0001 47.0352 16.0329 46.2066 16.0972C44.0041 16.2683 42.3573 18.1925 42.5284 20.395C42.5359 20.4907 42.5466 20.5853 42.5605 20.6788C39.3856 21.3909 36.4145 22.6423 33.7484 24.3318C33.6924 24.2561 33.6333 24.1818 33.5711 24.109C32.1356 22.4299 29.6107 22.2323 27.9315 23.6678C26.6583 24.7563 25.4716 25.9429 24.3831 27.2162C22.9476 28.8953 23.1452 31.4203 24.8244 32.8558C24.8971 32.918 24.9714 32.9771 25.0471 33.0331C23.3577 35.6992 22.1063 38.6703 21.3941 41.8452C21.3006 41.8313 21.206 41.8205 21.1104 41.8131C18.9079 41.642 16.9837 43.2888 16.8126 45.4913C16.7482 46.3198 16.7155 47.1566 16.7155 48.0001C16.7155 48.8437 16.7482 49.6804 16.8126 50.509C16.9837 52.7115 18.9079 54.3582 21.1104 54.1871C21.206 54.1797 21.3006 54.169 21.3941 54.155C22.1063 57.33 23.3577 60.3011 25.0471 62.9671C24.9714 63.0232 24.8971 63.0823 24.8244 63.1444C23.1452 64.5799 22.9476 67.1049 24.3831 68.7841C25.4716 70.0573 26.6583 71.244 27.9315 72.3324C29.6107 73.7679 32.1356 73.5704 33.5711 71.8912C33.6333 71.8185 33.6924 71.7442 33.7484 71.6684C36.4145 73.3579 39.3856 74.6093 42.5605 75.3215C42.5466 75.4149 42.5359 75.5096 42.5284 75.6052C42.3573 77.8077 44.0041 79.7319 46.2066 79.903C47.0352 79.9674 47.8719 80.0001 48.7155 80.0001C49.559 80.0001 50.3957 79.9674 51.2243 79.903C53.4268 79.7319 55.0736 77.8077 54.9025 75.6052C54.895 75.5096 54.8843 75.4149 54.8704 75.3215C58.0453 74.6093 61.0164 73.3579 63.6825 71.6684C63.7385 71.7442 63.7976 71.8185 63.8598 71.8912C65.2953 73.5704 67.8202 73.7679 69.4994 72.3324C70.7726 71.244 71.9593 70.0573 73.0478 68.7841C74.4833 67.1049 74.2857 64.5799 72.6065 63.1445C72.5338 63.0823 72.4595 63.0232 72.3838 62.9671C74.0732 60.3011 75.3247 57.33 76.0368 54.155C76.1303 54.169 76.2249 54.1797 76.3206 54.1871C78.5231 54.3582 80.4472 52.7115 80.6184 50.509C80.6827 49.6804 80.7155 48.8437 80.7155 48.0001C80.7155 47.1566 80.6827 46.3198 80.6184 45.4913C80.4472 43.2888 78.5231 41.642 76.3206 41.8131C76.2249 41.8205 76.1303 41.8313 76.0368 41.8452C75.3247 38.6703 74.0732 35.6992 72.3838 33.0331C72.4595 32.9771 72.5338 32.918 72.6065 32.8558C74.2857 31.4203 74.4833 28.8953 73.0478 27.2162C71.9593 25.9429 70.7726 24.7563 69.4994 23.6678C67.8202 22.2323 65.2953 22.4299 63.8598 24.109C63.7976 24.1818 63.7385 24.2561 63.6825 24.3318C61.0164 22.6423 58.0453 21.3909 54.8704 20.6788C54.8843 20.5853 54.895 20.4907 54.9025 20.395C55.0736 18.1925 53.4268 16.2683 51.2243 16.0972C50.3957 16.0329 49.559 16.0001 48.7155 16.0001ZM68.7155 48.0001C68.7155 59.0458 59.7611 68.0001 48.7155 68.0001C37.6698 68.0001 28.7155 59.0458 28.7155 48.0001C28.7155 36.9544 37.6698 28.0001 48.7155 28.0001C59.7611 28.0001 68.7155 36.9544 68.7155 48.0001Z" fill="#fff"/>
</svg>
