<svg width="50" height="45" viewBox="0 0 50 45" fill="none" xmlns="http://www.w3.org/2000/svg">
<path d="M33.2808 11.6924V7.37526L36.2157 10.4827C36.5438 10.8302 37.0941 10.8381 37.4321 10.5001L39.783 8.1492C40.1076 7.82462 40.1151 7.30073 39.7999 6.96702L34.763 1.63379C32.4242 -0.842559 28.2611 0.812623 28.2611 4.21881V9.31353C23.9258 9.75231 18.3694 11.3656 13.3532 15.223C7.22115 19.9386 2.12201 27.8373 0.921041 40.4033C0.708767 42.6244 2.34649 43.9619 3.67441 44.37C4.98652 44.7733 6.93472 44.5996 8.12271 42.9544C11.6438 38.0782 18.2767 31.2707 28.2611 30.2717V35.1112C28.2611 38.5173 32.4242 40.1725 34.763 37.6962L48.5372 23.1117C50.3643 21.1771 50.3643 18.1529 48.5372 16.2183L44.4133 11.8518C44.0851 11.5043 43.5348 11.4964 43.1968 11.8344L40.8459 14.1853C40.5213 14.5099 40.5139 15.0338 40.829 15.3675L44.8878 19.665L33.2808 31.9547V27.6375C33.2808 26.2514 32.1571 25.1277 30.7709 25.1277C19.2128 25.1277 11.1947 31.5289 6.45333 36.987C8.08893 28.0206 12.0803 22.5343 16.4132 19.2023C21.4229 15.3498 27.1213 14.2023 30.7709 14.2023C32.1571 14.2023 33.2808 13.0786 33.2808 11.6924Z" fill="#9B423E"/>
</svg>
