<svg width="14" height="21" viewBox="0 0 14 21" fill="none" xmlns="http://www.w3.org/2000/svg">
<path d="M6.99997 0.800049C5.34314 0.800049 4.00002 2.14318 4.00002 3.80001V9.80009C4.00002 11.4569 5.34314 12.8 6.99997 12.8C8.6568 12.8 9.99993 11.4569 9.99993 9.80009V3.80001C9.99993 2.14318 8.6568 0.800049 6.99997 0.800049Z" fill="#C22A23"/>
<path d="M2.03809 8.68933C2.03809 8.13705 1.59037 7.68933 1.03809 7.68933C0.485801 7.68933 0.0380859 8.13705 0.0380859 8.68933V9.50522C0.0380859 13.0106 2.6288 15.9109 5.99997 16.3958L5.99995 19.8C5.99995 20.3523 6.44766 20.8 6.99994 20.8C7.55223 20.8 7.99995 20.3523 7.99995 19.8L7.99997 16.3958C11.3711 15.9109 13.9619 13.0106 13.9619 9.50522V8.68933C13.9619 8.13705 13.5141 7.68933 12.9619 7.68933C12.4096 7.68933 11.9619 8.13705 11.9619 8.68933V9.50522C11.9619 12.2456 9.74035 14.4671 6.99997 14.4671C4.2596 14.4671 2.03809 12.2456 2.03809 9.50522V8.68933Z" fill="#C22A23"/>
</svg>
