<svg width="24" height="24" viewBox="0 0 24 24" fill="none" xmlns="http://www.w3.org/2000/svg">
<path d="M11.1123 5.71145C11.4854 4.99202 12.5145 4.99202 12.8877 5.71145L14.3986 8.62454C14.5388 8.89478 14.7944 9.08645 15.0931 9.14527L18.272 9.77121C19.0336 9.92116 19.3414 10.8438 18.8225 11.421L16.5446 13.9543C16.3511 14.1695 16.2603 14.4581 16.2958 14.7454L16.716 18.1506C16.8137 18.9422 15.9906 19.524 15.2769 19.1678L12.4465 17.7551C12.1654 17.6147 11.8346 17.6147 11.5534 17.7551L8.72297 19.1678C8.00926 19.524 7.18622 18.9422 7.28391 18.1506L7.70414 14.7454C7.7396 14.4581 7.64882 14.1695 7.45528 13.9543L5.17745 11.421C4.65848 10.8438 4.9663 9.92116 5.72786 9.77121L8.9068 9.14527C9.2055 9.08645 9.46114 8.89478 9.60131 8.62453L11.1123 5.71145Z" fill="#050505"/>
</svg>
