<svg width="18" height="17" viewBox="0 0 18 17" fill="none" xmlns="http://www.w3.org/2000/svg">
<path fill-rule="evenodd" clip-rule="evenodd" d="M8.14479 1.41117C8.53404 0.76887 9.46597 0.768868 9.85522 1.41116L11.6767 4.41682C11.9568 4.87905 12.4121 5.20823 12.9389 5.32938L16.3715 6.11885C17.1082 6.28828 17.3977 7.18239 16.9002 7.75154L14.6008 10.382C14.2425 10.7919 14.0668 11.3301 14.1142 11.8724L14.418 15.3482C14.4835 16.0982 13.728 16.649 13.034 16.357L9.77558 14.9862C9.27958 14.7775 8.72043 14.7775 8.22443 14.9862L4.96605 16.357C4.27205 16.649 3.51651 16.0982 3.58206 15.3482L3.88582 11.8724C3.93322 11.3301 3.75749 10.7919 3.39921 10.382L1.0998 7.75154C0.602284 7.18239 0.891845 6.28828 1.62856 6.11885L5.06116 5.32938C5.5879 5.20823 6.04318 4.87905 6.3233 4.41682L8.14479 1.41117Z" fill="#050505"/>
</svg>
