<svg width="25" height="24" viewBox="0 0 25 24" fill="none" xmlns="http://www.w3.org/2000/svg">
<path fill-rule="evenodd" clip-rule="evenodd" d="M10.6061 2.83789C11.3886 1.57926 13.2205 1.57927 14.003 2.83789L15.86 5.82462C16.1354 6.26746 16.5728 6.58525 17.079 6.71027L20.4934 7.55343C21.9323 7.90875 22.4983 9.65093 21.5431 10.7841L19.2764 13.4732C18.9403 13.8719 18.7733 14.3861 18.8108 14.9062L19.064 18.414C19.1707 19.8923 17.6887 20.969 16.3158 20.4107L13.0579 19.0859C12.5749 18.8895 12.0342 18.8895 11.5512 19.0859L8.29327 20.4107C6.92036 20.969 5.43838 19.8922 5.54509 18.414L5.79829 14.9062C5.83584 14.3861 5.66876 13.8719 5.33268 13.4732L3.06598 10.7841C2.11077 9.65092 2.67685 7.90875 4.11569 7.55343L7.53009 6.71027C8.03634 6.58525 8.47374 6.26746 8.74907 5.82462L10.6061 2.83789ZM12.3046 3.89392L10.4475 6.88065C9.89687 7.76633 9.02207 8.40191 8.00957 8.65194L4.59518 9.49511L6.86188 12.1842C7.53404 12.9816 7.86819 14.01 7.7931 15.0502L7.5399 18.558L10.7978 17.2332C11.7639 16.8404 12.8452 16.8404 13.8113 17.2332L17.0692 18.558L16.816 15.0502C16.7409 14.01 17.0751 12.9816 17.7472 12.1842L20.0139 9.49511L16.5995 8.65194C15.587 8.40191 14.7122 7.76633 14.1616 6.88065L12.3046 3.89392Z" fill="black"/>
</svg>
