<svg width="24" height="24" viewBox="0 0 24 24" fill="none" xmlns="http://www.w3.org/2000/svg">
<path fill-rule="evenodd" clip-rule="evenodd" d="M10.6684 5.48123C11.2282 4.40209 12.7718 4.40209 13.3315 5.48123L14.8425 8.39432C14.9126 8.52944 15.0404 8.62528 15.1897 8.65469L18.3687 9.28063C19.511 9.50556 19.9727 10.8895 19.1943 11.7553L16.9165 14.2886C16.8197 14.3962 16.7743 14.5405 16.792 14.6841L17.2122 18.0893C17.3588 19.2768 16.1242 20.1495 15.0537 19.6152L12.2233 18.2025C12.0827 18.1323 11.9173 18.1323 11.7767 18.2025L8.94628 19.6152C7.87572 20.1495 6.64115 19.2768 6.78769 18.0893L7.20792 14.6841C7.22565 14.5405 7.18026 14.3962 7.08349 14.2886L4.80566 11.7553C4.0272 10.8895 4.48894 9.50556 5.63128 9.28063L8.81022 8.65469C8.95957 8.62528 9.08739 8.52944 9.15748 8.39432L10.6684 5.48123ZM12.4438 5.94166C12.2572 5.58195 11.7427 5.58195 11.5561 5.94166L10.0452 8.85475C9.83492 9.26011 9.45146 9.54763 9.00342 9.63585L5.82447 10.2618C5.44369 10.3368 5.28978 10.7981 5.54927 11.0867L7.8271 13.62C8.11741 13.9428 8.25358 14.3757 8.2004 14.8066L7.78016 18.2118C7.73132 18.6077 8.14284 18.8985 8.49969 18.7204L11.3301 17.3077C11.7519 17.0972 12.2481 17.0972 12.6698 17.3077L15.5002 18.7204C15.8571 18.8985 16.2686 18.6077 16.2198 18.2118L15.7995 14.8066C15.7464 14.3757 15.8825 13.9428 16.1728 13.62L18.4507 11.0867C18.7102 10.7981 18.5562 10.3368 18.1755 10.2618L14.9965 9.63585C14.5485 9.54763 14.165 9.26011 13.9548 8.85475L12.4438 5.94166Z" fill="#050505"/>
</svg>
