<svg width="74" height="74" viewBox="0 0 74 74" fill="none" xmlns="http://www.w3.org/2000/svg">
<path fill-rule="evenodd" clip-rule="evenodd" d="M41.5349 9.0676C38.7191 7.50868 35.2809 7.50868 32.4651 9.0676L10.8217 21.0499C9.85082 21.5874 9.25 22.5985 9.25 23.6949C9.25 24.7913 9.85082 25.8024 10.8217 26.3399L32.4651 38.3222C35.2809 39.8811 38.7191 39.8811 41.5349 38.3222L63.1783 26.3399C64.1492 25.8024 64.75 24.7913 64.75 23.6949C64.75 22.5985 64.1492 21.5874 63.1783 21.0499L41.5349 9.0676ZM35.4884 14.3575C36.427 13.8379 37.573 13.8379 38.5116 14.3575L55.3775 23.6949L38.5116 33.0323C37.573 33.5519 36.427 33.5519 35.4884 33.0323L18.6225 23.6949L35.4884 14.3575Z" fill="black"/>
<path d="M24.6667 40.3857C24.6667 38.7097 23.2862 37.351 21.5833 37.351C19.8805 37.351 18.5 38.7097 18.5 40.3857V55.9667C18.5 56.1249 18.5126 56.2828 18.5376 56.4391C19.2604 60.9534 24.5649 67.1057 36.8579 67.6641C49.5902 68.2424 54.8068 61.1941 55.4719 56.3752C55.4906 56.2398 55.5 56.1033 55.5 55.9667V40.3857C55.5 38.7097 54.1195 37.351 52.4167 37.351C50.7138 37.351 49.3333 38.7097 49.3333 40.3857V55.7196C49.0076 57.3002 46.67 62.0339 37.1421 61.6012C27.3625 61.1569 25.0004 56.8189 24.6667 55.6563V40.3857Z" fill="black"/>
</svg>
