<svg width="24" height="24" viewBox="0 0 24 24" fill="none" xmlns="http://www.w3.org/2000/svg">
<path fill-rule="evenodd" clip-rule="evenodd" d="M11.8244 4.53184C11.9376 4.48939 12.0624 4.48939 12.1756 4.53184L20.1756 7.53184C20.3707 7.60502 20.5 7.79158 20.5 8C20.5 8.20842 20.3707 8.39498 20.1756 8.46816L12.1756 11.4682C12.0624 11.5106 11.9376 11.5106 11.8244 11.4682L3.82444 8.46816C3.62929 8.39498 3.5 8.20842 3.5 8C3.5 7.79158 3.62929 7.60502 3.82444 7.53184L11.8244 4.53184ZM5.424 8L12 10.466L18.576 8L12 5.534L5.424 8Z" fill="#050505"/>
<path fill-rule="evenodd" clip-rule="evenodd" d="M7 8.70301C7.27614 8.70301 7.5 8.92687 7.5 9.20301V18.5222C10.2707 20.1773 13.7293 20.1773 16.5 18.5222V9.20307C16.5 8.92693 16.7239 8.70307 17 8.70307C17.2761 8.70307 17.5 8.92693 17.5 9.20307V18.7924C17.5026 18.96 17.421 19.125 17.2695 19.2219C14.0571 21.2773 9.94286 21.2773 6.73052 19.2219C6.62488 19.1543 6.55321 19.0537 6.52039 18.9421C6.50613 18.8937 6.4992 18.8432 6.5 18.7924V9.20301C6.5 8.92687 6.72386 8.70301 7 8.70301Z" fill="#050505"/>
</svg>
