<svg width="24" height="24" viewBox="0 0 24 24" fill="none" xmlns="http://www.w3.org/2000/svg">
<path fill-rule="evenodd" clip-rule="evenodd" d="M12 4.5C7.85786 4.5 4.5 7.85786 4.5 12C4.5 13.5007 4.94074 14.8984 5.69984 16.0708C6.46713 15.2546 7.38924 14.5971 8.41391 14.1374C9.31012 13.7354 10.2672 13.4926 11.2424 13.4178C9.67363 13.0715 8.50007 11.6728 8.50007 10C8.50007 8.067 10.0671 6.5 12.0001 6.5C13.9331 6.5 15.5001 8.067 15.5001 10C15.5001 11.6948 14.2955 13.1082 12.6959 13.4308C13.7528 13.5311 14.7835 13.8288 15.7338 14.3101C16.6709 14.7848 17.5102 15.4282 18.2104 16.2061C19.0244 15.0066 19.5 13.5588 19.5 12C19.5 10.8075 19.2217 9.68004 18.7265 8.67897C19.0296 8.50799 19.2935 8.27559 19.5012 7.99866C20.1386 9.19113 20.5 10.5534 20.5 12C20.5 16.6944 16.6944 20.5 12 20.5C7.30558 20.5 3.5 16.6944 3.5 12C3.5 7.30558 7.30558 3.5 12 3.5C13.4466 3.5 14.8089 3.86139 16.0013 4.49882C15.7244 4.70654 15.492 4.97039 15.321 5.2735C14.32 4.7783 13.1925 4.5 12 4.5ZM17.5835 17.0075C16.9431 16.2615 16.1614 15.6477 15.282 15.2022C14.2848 14.6971 13.1873 14.4213 12.0698 14.3949C10.9523 14.3685 9.84309 14.5923 8.8232 15.0498C7.8654 15.4795 7.00916 16.1051 6.30931 16.8855C7.68477 18.4862 9.72399 19.5 12 19.5C14.2176 19.5 16.2105 18.5375 17.5835 17.0075ZM9.50007 10C9.50007 8.61929 10.6194 7.5 12.0001 7.5C13.3808 7.5 14.5001 8.61929 14.5001 10C14.5001 11.3807 13.3808 12.5 12.0001 12.5C10.6194 12.5 9.50007 11.3807 9.50007 10Z" fill="#050505"/>
<circle cx="17.5" cy="6.5" r="1.5" fill="#B1B1B1"/>
</svg>
