<svg width="24" height="24" viewBox="0 0 24 24" fill="none" xmlns="http://www.w3.org/2000/svg">
<path fill-rule="evenodd" clip-rule="evenodd" d="M12 3.5C7.30558 3.5 3.5 7.30558 3.5 12C3.5 16.6944 7.30558 20.5 12 20.5C12.1824 20.5 12.3635 20.4942 12.5432 20.4829C16.9847 20.2025 20.5 16.512 20.5 12C20.5 7.30558 16.6944 3.5 12 3.5ZM9.5 10C9.5 8.61929 10.6193 7.5 12 7.5C13.3807 7.5 14.5 8.61929 14.5 10C14.5 11.3807 13.3807 12.5 12 12.5C10.6193 12.5 9.5 11.3807 9.5 10ZM8.82313 15.0498C9.84302 14.5923 10.9523 14.3685 12.0698 14.3949C13.1873 14.4213 14.2847 14.6971 15.2819 15.2022C15.8616 15.4959 16.3989 15.8627 16.8813 16.2924C15.6895 17.6466 13.9445 18.5 12 18.5C10.005 18.5 8.21981 17.6016 7.02681 16.1856C7.56709 15.725 8.17161 15.3421 8.82313 15.0498Z" fill="#050505"/>
</svg>
