<svg width="38" height="38" viewBox="0 0 38 38" fill="none" xmlns="http://www.w3.org/2000/svg">
<path fill-rule="evenodd" clip-rule="evenodd" d="M19.0003 37.1333C29.1255 37.1333 37.3337 28.9252 37.3337 18.8C37.3337 8.67479 29.1255 0.466675 19.0003 0.466675C8.8751 0.466675 0.666992 8.67479 0.666992 18.8C0.666992 28.9252 8.8751 37.1333 19.0003 37.1333ZM19.0003 33.4667C22.9534 33.4667 26.5413 31.9027 29.1789 29.3598C23.816 23.3158 14.2369 23.2695 8.82912 29.3668C11.466 31.9056 15.0509 33.4667 19.0003 33.4667ZM22.6091 21.5187C25.9029 22.2119 29.0247 23.8651 31.504 26.4701C32.8758 24.2385 33.667 21.6116 33.667 18.8C33.667 10.6998 27.1005 4.13334 19.0003 4.13334C10.9001 4.13334 4.33366 10.6998 4.33366 18.8C4.33366 21.6155 5.12699 24.2457 6.5023 26.4793C8.99026 23.8625 12.1086 22.2119 15.3928 21.5194C13.1683 20.2601 11.667 17.872 11.667 15.1333C11.667 11.0833 14.9502 7.80001 19.0003 7.80001C23.0504 7.80001 26.3337 11.0833 26.3337 15.1333C26.3337 17.8715 24.8329 20.2592 22.6091 21.5187ZM22.667 15.1333C22.667 17.1584 21.0254 18.8 19.0003 18.8C16.9753 18.8 15.3337 17.1584 15.3337 15.1333C15.3337 13.1083 16.9753 11.4667 19.0003 11.4667C21.0254 11.4667 22.667 13.1083 22.667 15.1333Z" fill="#C22A23"/>
</svg>
