<svg width="24" height="24" viewBox="0 0 24 24" fill="none" xmlns="http://www.w3.org/2000/svg">
<path fill-rule="evenodd" clip-rule="evenodd" d="M3.5 12C3.5 7.30558 7.30558 3.5 12 3.5C16.6944 3.5 20.5 7.30558 20.5 12C20.5 16.6944 16.6944 20.5 12 20.5C7.30558 20.5 3.5 16.6944 3.5 12ZM12 4.5C7.85786 4.5 4.5 7.85786 4.5 12C4.5 13.5006 4.94073 14.8984 5.69981 16.0707C6.46708 15.2546 7.38915 14.5971 8.41379 14.1374C9.31005 13.7354 10.2672 13.4926 11.2424 13.4178C9.67361 13.0716 8.5 11.6729 8.5 10C8.5 8.067 10.067 6.5 12 6.5C13.933 6.5 15.5 8.067 15.5 10C15.5 11.6948 14.2954 13.1083 12.6956 13.4309C13.7526 13.5312 14.7834 13.8288 15.7337 14.3102C16.6708 14.7849 17.5101 15.4282 18.2104 16.2062C19.0244 15.0067 19.5 13.5589 19.5 12C19.5 7.85786 16.1421 4.5 12 4.5ZM12 19.5C9.72397 19.5 7.68473 18.4862 6.30926 16.8854C7.00911 16.1051 7.86531 15.4795 8.82308 15.0498C9.84297 14.5923 10.9522 14.3686 12.0697 14.395C13.1872 14.4213 14.2847 14.6972 15.2818 15.2023C16.1612 15.6477 16.943 16.2616 17.5835 17.0076C16.2104 18.5376 14.2176 19.5 12 19.5ZM9.5 10C9.5 8.61929 10.6193 7.5 12 7.5C13.3807 7.5 14.5 8.61929 14.5 10C14.5 11.3807 13.3807 12.5 12 12.5C10.6193 12.5 9.5 11.3807 9.5 10Z" fill="#050505"/>
</svg>
