<svg width="24" height="24" viewBox="0 0 24 24" fill="none" xmlns="http://www.w3.org/2000/svg">
<path d="M12 3C10.3431 3 9 4.34315 9 6V11C9 12.6569 10.3431 14 12 14C13.6569 14 15 12.6569 15 11V6C15 4.34315 13.6569 3 12 3Z" fill="black"/>
<path d="M7.5 10C7.5 9.72386 7.27614 9.5 7 9.5C6.72386 9.5 6.5 9.72386 6.5 10V11C6.5 13.869 8.69675 16.225 11.5 16.4776V19.5H8C7.72386 19.5 7.5 19.7239 7.5 20C7.5 20.2761 7.72386 20.5 8 20.5H16C16.2761 20.5 16.5 20.2761 16.5 20C16.5 19.7239 16.2761 19.5 16 19.5H12.5V16.4776C15.3033 16.225 17.5 13.869 17.5 11V10C17.5 9.72386 17.2761 9.5 17 9.5C16.7239 9.5 16.5 9.72386 16.5 10V11C16.5 13.4853 14.4853 15.5 12 15.5C9.51472 15.5 7.5 13.4853 7.5 11V10Z" fill="black"/>
</svg>
