<svg width="24" height="24" viewBox="0 0 24 24" fill="none" xmlns="http://www.w3.org/2000/svg">
<path fill-rule="evenodd" clip-rule="evenodd" d="M4.5164 11.5H7C7.82843 11.5 8.5 12.1716 8.5 13V14.2597C8.5 14.3924 8.60759 14.5 8.74031 14.5C8.79488 14.5 8.84782 14.4814 8.89043 14.4473L13.3123 10.9098C13.431 10.8149 13.5 10.6713 13.5 10.5194V8C13.5 7.72386 13.2761 7.5 13 7.5C12.1716 7.5 11.5 6.82843 11.5 6V4.5164C7.75625 4.76282 4.76282 7.75625 4.5164 11.5ZM12.5 4.5164V6C12.5 6.27614 12.7239 6.5 13 6.5C13.8284 6.5 14.5 7.17157 14.5 8V10.5194C14.5 10.9751 14.2929 11.406 13.937 11.6907L9.51513 15.2282C9.29521 15.4041 9.02195 15.5 8.74031 15.5C8.05531 15.5 7.5 14.9447 7.5 14.2597V13C7.5 12.7239 7.27614 12.5 7 12.5H4.5164C4.7737 16.409 8.02588 19.5 12 19.5C14.4532 19.5 16.6318 18.3224 18.0006 16.5H17.4142C17.0164 16.5 16.6349 16.342 16.3536 16.0607L15.6985 15.4056C15.2118 14.9189 15.1188 14.1635 15.473 13.5732L16.28 12.2283C16.551 11.7764 17.0393 11.5 17.5662 11.5H19.4836C19.2372 7.75625 16.2438 4.76282 12.5 4.5164ZM19.4836 12.5H17.5662C17.3906 12.5 17.2278 12.5921 17.1374 12.7428L16.3305 14.0877C16.2124 14.2845 16.2434 14.5363 16.4056 14.6985L17.0607 15.3536C17.1544 15.4473 17.2816 15.5 17.4142 15.5H18.6351C19.1139 14.5943 19.4127 13.5787 19.4836 12.5ZM3.5 12C3.5 7.30558 7.30558 3.5 12 3.5C16.6944 3.5 20.5 7.30558 20.5 12C20.5 13.5474 20.0861 14.9996 19.3625 16.2504C17.8936 18.7897 15.1468 20.5 12 20.5C7.30558 20.5 3.5 16.6944 3.5 12Z" fill="#050505"/>
</svg>
