<svg width="74" height="68" viewBox="0 0 74 68" fill="none" xmlns="http://www.w3.org/2000/svg">
<path fill-rule="evenodd" clip-rule="evenodd" d="M21.5837 9.06179C21.5837 7.5292 22.9641 6.28679 24.667 6.28679H49.3337C51.0365 6.28679 52.417 7.5292 52.417 9.06179V17.3868H61.667C65.0727 17.3868 67.8337 19.8716 67.8337 22.9368V32.5853C67.8348 32.6283 67.8348 32.6713 67.8337 32.714V53.4618C67.8337 56.527 65.0727 59.0118 61.667 59.0118H12.3337C8.92791 59.0118 6.16699 56.527 6.16699 53.4618V22.9368C6.16699 19.8716 8.9279 17.3868 12.3337 17.3868H21.5837V9.06179ZM61.667 30.6492V22.9368H12.3337V31.5523L36.9426 38.0665L61.667 30.6492ZM12.3337 37.3374L36.1303 43.6365C36.7343 43.7964 37.3781 43.7861 37.9754 43.6069L61.667 36.4994V53.4618H12.3337V37.3374ZM46.2503 11.8368V17.3868H27.7503V11.8368H46.2503Z" fill="#293D00"/>
</svg>
