<svg width="24" height="24" viewBox="0 0 24 24" fill="none" xmlns="http://www.w3.org/2000/svg">
<path fill-rule="evenodd" clip-rule="evenodd" d="M3.5 9C3.5 8.17157 4.17157 7.5 5 7.5H19C19.8284 7.5 20.5 8.17157 20.5 9V18C20.5 18.8284 19.8284 19.5 19 19.5H5C4.17157 19.5 3.5 18.8284 3.5 18V9ZM5 8.5C4.72386 8.5 4.5 8.72386 4.5 9V10.3731L11.8623 12.4821C11.9523 12.5079 12.0477 12.5079 12.1377 12.4821L19.5 10.3731V9C19.5 8.72386 19.2761 8.5 19 8.5H5ZM19.5 11.4133L12.4131 13.4434C12.1431 13.5208 11.8569 13.5208 11.5869 13.4434L4.5 11.4133V18C4.5 18.2761 4.72386 18.5 5 18.5H19C19.2761 18.5 19.5 18.2761 19.5 18V11.4133Z" fill="#050505"/>
<path fill-rule="evenodd" clip-rule="evenodd" d="M7.5 5C7.5 4.72386 7.72386 4.5 8 4.5H16C16.2761 4.5 16.5 4.72386 16.5 5V8C16.5 8.27614 16.2761 8.5 16 8.5C15.7239 8.5 15.5 8.27614 15.5 8V5.5H8.5V8C8.5 8.27614 8.27614 8.5 8 8.5C7.72386 8.5 7.5 8.27614 7.5 8V5Z" fill="#050505"/>
</svg>
