<svg width="21" height="21" viewBox="0 0 21 21" fill="none" xmlns="http://www.w3.org/2000/svg">
<path fill-rule="evenodd" clip-rule="evenodd" d="M10.7209 20.436C5.97376 20.436 0.720932 16.1875 0.720932 10.436C0.720932 -2.55522 19.6684 -2.96795 20.679 9.39131C20.7242 9.9433 20.2711 10.3994 19.7173 10.3994C19.1662 10.3994 18.7255 9.95227 18.6552 9.40574C18.5482 8.57367 18.3134 7.78162 17.9711 7.04991C17.3386 7.18122 16.7033 7.29517 16.0661 7.39174C16.1098 7.57674 16.1493 7.76418 16.1844 7.95401C16.4954 9.63664 16.4525 11.469 15.897 13.4021C16.6056 13.4905 17.3126 13.5971 18.0171 13.7219C18.1012 13.5355 18.1783 13.3454 18.2482 13.1517C18.4053 12.7164 18.8025 12.3994 19.2653 12.3994C19.9082 12.3994 20.3891 12.9945 20.1735 13.6001C18.7389 17.6309 14.7049 20.436 10.7209 20.436ZM15.4354 5.46282C15.0969 4.65954 14.6864 3.91873 14.2359 3.24752C15.2236 3.7314 16.0969 4.41285 16.8044 5.24038C16.3492 5.32399 15.8928 5.39814 15.4354 5.46282ZM13.3429 5.69226C12.696 4.36897 11.824 3.26371 10.9613 2.43952C10.8815 2.43716 10.8013 2.43597 10.7209 2.43597C10.6866 2.43597 10.6523 2.43619 10.6181 2.43662C9.73773 3.24853 8.83462 4.35776 8.15927 5.69692C9.88467 5.82856 11.6177 5.82701 13.3429 5.69226ZM7.40817 7.64034C9.62281 7.84691 11.852 7.84588 14.0665 7.63727C14.1244 7.85996 14.175 8.08678 14.2177 8.31751C14.4849 9.76333 14.4464 11.4053 13.868 13.1993C11.76 13.0402 9.64282 13.0412 7.53487 13.2022C6.99384 11.4562 6.96309 9.85635 7.2242 8.4437C7.27473 8.1703 7.33647 7.90241 7.40817 7.64034ZM8.33264 15.1524C9.90239 15.0581 11.4763 15.0568 13.0462 15.1486C12.4961 16.2045 11.7529 17.3028 10.7762 18.4358L10.7209 18.436C10.666 18.436 10.6112 18.4354 10.5565 18.4343C9.5962 17.3027 8.86844 16.2061 8.33264 15.1524ZM5.25751 8.08019C4.95304 9.72742 4.98776 11.5182 5.51052 13.4064C4.81338 13.494 4.11789 13.5991 3.42474 13.7219C2.97257 12.7194 2.72093 11.6071 2.72093 10.436C2.72093 9.22571 2.98968 8.07822 3.47075 7.04991C4.11303 7.18324 4.75807 7.29867 5.40513 7.39619C5.34969 7.62056 5.30031 7.8486 5.25751 8.08019ZM6.20671 15.3373C5.66175 15.3995 5.11776 15.4729 4.57508 15.5577C5.37696 16.5188 6.40009 17.289 7.56622 17.7899C7.01433 16.9605 6.56465 16.1419 6.20671 15.3373ZM16.8668 15.5577C16.3062 15.4701 15.7442 15.3946 15.1811 15.3312C14.8063 16.1541 14.3354 16.9914 13.7571 17.8397C14.9725 17.3408 16.0378 16.5513 16.8668 15.5577ZM6.05738 5.46998C6.41826 4.63745 6.85606 3.87348 7.3341 3.18615C6.29371 3.67302 5.37536 4.37724 4.63749 5.24038C5.1095 5.32709 5.58291 5.40362 6.05738 5.46998Z" fill="#e9635d"/>
</svg>
