<svg width="24" height="24" viewBox="0 0 24 24" fill="none" xmlns="http://www.w3.org/2000/svg">
<path fill-rule="evenodd" clip-rule="evenodd" d="M18.0104 5.98971C18.2057 6.18497 18.2057 6.50155 18.0104 6.69682L12.7071 12.0001L18.0104 17.3034C18.2057 17.4987 18.2057 17.8153 18.0104 18.0105C17.8151 18.2058 17.4986 18.2058 17.3033 18.0105L12 12.7072L6.69669 18.0105C6.50143 18.2058 6.18485 18.2058 5.98959 18.0105C5.79432 17.8153 5.79432 17.4987 5.98959 17.3034L11.2929 12.0001L5.98959 6.69682C5.79432 6.50155 5.79432 6.18497 5.98959 5.98971C6.18485 5.79445 6.50143 5.79445 6.69669 5.98971L12 11.293L17.3033 5.98971C17.4986 5.79445 17.8151 5.79445 18.0104 5.98971Z" fill="#050505"/>
</svg>
