<svg width="43" height="34" viewBox="0 0 43 34" fill="none" xmlns="http://www.w3.org/2000/svg">
<path d="M41.4372 5.18808C40.958 3.39641 39.5455 1.98391 37.7539 1.50474C34.5039 0.633912 21.4747 0.633911 21.4747 0.633911C21.4747 0.633911 8.44552 0.633912 5.19552 1.50474C3.40386 1.98391 1.99136 3.39641 1.51219 5.18808C0.641357 8.43808 0.641357 17.3006 0.641357 17.3006C0.641357 17.3006 0.641357 26.1631 1.51219 29.4131C1.99136 31.2047 3.40386 32.6172 5.19552 33.0964C8.44552 33.9672 21.4747 33.9672 21.4747 33.9672C21.4747 33.9672 34.5039 33.9672 37.7539 33.0964C39.5476 32.6172 40.958 31.2047 41.4372 29.4131C42.308 26.1631 42.308 17.3006 42.308 17.3006C42.308 17.3006 42.308 8.43808 41.4372 5.18808ZM17.308 22.7131V11.8881C17.308 11.086 18.1768 10.586 18.8705 10.986L28.2455 16.3985C28.9393 16.7985 28.9393 17.8027 28.2455 18.2027L18.8705 23.6152C18.1768 24.0172 17.308 23.5152 17.308 22.7131Z" fill="#e9635d"/>
</svg>
